<svg xmlns="http://www.w3.org/2000/svg" viewBox="0 0 351.13 341.4"><defs><style>.cls-1,.cls-6{fill:#fff;}.cls-2,.cls-7{fill:none;}.cls-2,.cls-3,.cls-4,.cls-5,.cls-6,.cls-7{stroke:#000;stroke-miterlimit:10;}.cls-2{stroke-width:8.26px;}.cls-3{stroke-width:1.83px;}.cls-4{stroke-width:2.74px;}.cls-5,.cls-6{stroke-width:2.99px;}.cls-7{stroke-width:6.32px;}</style></defs><g id="Layer_2" data-name="Layer 2"><g id="Layer_1-2" data-name="Layer 1"><path class="cls-1" d="M327.43,111.45c0,8.69-4.32,17.52-11.3,24.59a49.28,49.28,0,0,1-27.28,14,753,753,0,0,1-228.36,0c-21.29-3.24-38.57-21.19-38.57-38.57a23.14,23.14,0,0,1,11.3-20.09c6.62-4.16,15.62-6,25.61-4.82A21.43,21.43,0,0,1,58.09,81V78.82C58.09,65,71.92,55.94,88.9,57.87q7.44.85,14.9,1.56c-2.24-2.92-4.73-8.8-4.3-11.93,1-7.08,10.15-11.9,25.11-13.76,31.82-4.32,35.73.62,60-4.46,37.16-8.69,5.12-27,27.53-25,9.47,1.07,46.74,32,42.23,54.26,2-.21,4.06-.44,6.09-.67,17-1.93,30.81,7.12,30.81,20.95V81a21.86,21.86,0,0,1-.73,5.55C311,84.09,327.43,94.49,327.43,111.45Z"/><path class="cls-2" d="M327.43,111.45c0,8.69-4.32,17.52-11.3,24.59a49.28,49.28,0,0,1-27.28,14,753,753,0,0,1-228.36,0c-21.29-3.24-38.57-21.19-38.57-38.57a23.14,23.14,0,0,1,11.3-20.09c6.62-4.16,15.62-6,25.61-4.82A21.43,21.43,0,0,1,58.09,81V78.82C58.09,65,71.92,55.94,88.9,57.87q7.44.85,14.9,1.56c-2.24-2.92-4.73-8.8-4.3-11.93,1-7.08,10.15-11.9,25.11-13.76,31.82-4.32,35.73.62,60-4.46,37.16-8.69,5.12-27,27.53-25,9.47,1.07,46.74,32,42.23,54.26,2-.21,4.06-.44,6.09-.67,17-1.93,30.81,7.12,30.81,20.95V81a21.86,21.86,0,0,1-.73,5.55C311,84.09,327.43,94.49,327.43,111.45Z"/><path class="cls-3" d="M202.44,73.36a8.49,8.49,0,0,0-4,.21c-23.7,9.25-48.59,7.91-71.39-2.88-1.43-.68-5.28.46-5.6.31a104.4,104.4,0,0,0,82,3C204.6,73.58,202.74,73.43,202.44,73.36Z"/><path class="cls-4" d="M257.11,104a7.91,7.91,0,0,0-3.71.22c-54.58,17.89-112.52,15.9-166-4.6a7.33,7.33,0,0,0-3.72-.13c-.32.09-2,.27-1,.67a262.6,262.6,0,0,0,175.42,4.49C259.18,104.28,257.3,104,257.11,104Z"/><path class="cls-5" d="M80.63,332.89q-22.68-3.24-45.69-8L5.51,141.59c-2-12.53,6.82-21,19.57-19.12,3.3.48,6.58,1,9.87,1.4,12.68,1.76,24.14,13.18,25.52,25.72Z"/><path class="cls-6" d="M74.71,328.17q-17.31-2.61-34.82-6.07a.59.59,0,0,1-.4-.46L11.67,141.94c-1.52-9.83,5.41-16.52,15.37-15.07l7.1,1c9.91,1.39,18.93,10.41,20.07,20.24L75,327.82C75,328,74.9,328.2,74.71,328.17Z"/><path class="cls-5" d="M160,339.68q-22.23-.58-44.56-2.67-6.47-91.65-13-183.3c-.88-12.54,8.63-22,21.11-21.32,3.23.17,6.46.32,9.69.47a24.35,24.35,0,0,1,23.09,23.51Z"/><path class="cls-6" d="M154.51,335.6q-16.95-.59-34-2a.42.42,0,0,1-.35-.42l-11.66-179.7a15.41,15.41,0,0,1,16.58-16.79l7,.34a19.29,19.29,0,0,1,18.16,18.51l4.58,179.7A.36.36,0,0,1,154.51,335.6Z"/><path class="cls-5" d="M120.48,337.47q-22.38-1.92-45-5.33L54.29,148.83C52.84,136.3,62,127.35,74.57,128.61q4.89.49,9.76.94c12.54,1.15,23.44,12.07,24.25,24.61Z"/><path class="cls-6" d="M114.81,333.06q-17.07-1.59-34.29-4a.51.51,0,0,1-.37-.45L60.39,148.88C59.31,139,66.49,132,76.32,132.94c2.34.24,4.68.46,7,.68,9.8.92,18.38,9.55,19.07,19.38q6.34,89.85,12.7,179.7C115.12,332.92,115,333.08,114.81,333.06Z"/><path class="cls-5" d="M199.35,339.53q-22.22.75-44.41,0l-4.68-183.31a21.76,21.76,0,0,1,22.05-22.42q4.83,0,9.66,0A21.75,21.75,0,0,1,204,156.22Z"/><path class="cls-6" d="M194.07,335.77q-16.92.44-33.86,0a.41.41,0,0,1-.33-.41l-3.54-179.7A17.21,17.21,0,0,1,173.67,138c2.32,0,4.63,0,7,0A17.21,17.21,0,0,1,198,155.66l-3.55,179.7A.39.39,0,0,1,194.07,335.77Z"/><path class="cls-5" d="M238.87,337q-22.34,2.08-44.55,2.67l3.61-183.31A24.37,24.37,0,0,1,221,132.86c3.23-.15,6.46-.3,9.68-.47,12.49-.66,22,8.78,21.12,21.32Z"/><path class="cls-6" d="M233.74,333.57q-17,1.46-34,2c-.18,0-.31-.17-.31-.39L204,155.51A19.29,19.29,0,0,1,222.2,137l7-.34a15.41,15.41,0,0,1,16.59,16.79l-11.66,179.7A.42.42,0,0,1,233.74,333.57Z"/><path class="cls-5" d="M278.77,332.28q-22.59,3.42-45,5.33L245.7,154.3c.81-12.53,11.71-23.46,24.25-24.61q4.88-.45,9.75-.94c12.59-1.27,21.73,7.69,20.28,20.22Z"/><path class="cls-6" d="M273.75,329.16q-17.21,2.46-34.28,4c-.18,0-.32-.14-.3-.36l12.7-179.7c.69-9.83,9.27-18.46,19.07-19.38,2.33-.22,4.67-.44,7-.68,9.83-1,17,6.1,15.93,15.94L274.12,328.71A.51.51,0,0,1,273.75,329.16Z"/><path class="cls-5" d="M319.35,324.9q-23,4.74-45.69,8l20.16-183.3c1.38-12.54,12.84-24,25.52-25.72q4.92-.68,9.86-1.4c12.76-1.87,21.59,6.59,19.58,19.12Z"/><path class="cls-6" d="M314.4,322.1q-17.52,3.47-34.83,6.07c-.18,0-.3-.13-.28-.35l20.79-179.7c1.14-9.83,10.16-18.85,20.07-20.24l7.1-1c10-1.45,16.89,5.23,15.36,15.07l-27.82,179.7A.55.55,0,0,1,314.4,322.1Z"/><path class="cls-1" d="M336.52,252.44A776.61,776.61,0,0,1,18.07,246.9q-7.78-30-13.94-60c110.39,30.12,230,33.73,343.11,9.74Q342.52,224.51,336.52,252.44Z"/><path class="cls-7" d="M336.52,252.44A776.61,776.61,0,0,1,18.07,246.9q-7.78-30-13.94-60c110.39,30.12,230,33.73,343.11,9.74Q342.52,224.51,336.52,252.44Z"/></g></g></svg>