<svg width="296" height="51" viewBox="0 0 296 51" fill="none" xmlns="http://www.w3.org/2000/svg">
<path opacity="0.989" fill-rule="evenodd" clip-rule="evenodd" d="M147.055 0C147.273 0 147.491 0 147.709 0C148.157 0.0923982 148.535 0.31055 148.845 0.654457C149.313 1.17232 149.492 1.77545 149.384 2.46384C149.348 2.5983 149.296 2.72662 149.23 2.84881C148.603 3.62777 148.102 4.48754 147.728 5.42815C147.603 5.60997 147.43 5.66772 147.209 5.60139C147.154 5.58348 147.109 5.55138 147.074 5.50514C146.841 4.99994 146.597 4.49947 146.343 4.00374C146.116 3.62299 145.859 3.26368 145.573 2.92581C145.185 2.1173 145.288 1.37302 145.881 0.692955C146.197 0.326732 146.588 0.0957467 147.055 0ZM147.055 0.76995C147.979 0.7129 148.518 1.14279 148.672 2.05962C148.66 2.24785 148.602 2.42108 148.498 2.57933C148.039 3.12571 147.667 3.72884 147.382 4.38871C147.061 3.69543 146.664 3.05381 146.189 2.46384C146.03 2.06437 146.082 1.69223 146.343 1.34741C146.528 1.08541 146.766 0.892922 147.055 0.76995Z" fill="black"/>
<path opacity="0.989" fill-rule="evenodd" clip-rule="evenodd" d="M142.781 3.58053C144.037 3.51916 145.096 3.94264 145.957 4.85095C147.402 6.53953 147.62 8.37455 146.611 10.3561C145.824 11.5104 144.727 12.1328 143.32 12.2232C142.103 12.3168 140.973 12.0473 139.932 11.4148C138.93 10.733 138.063 9.90533 137.333 8.93169C136.918 8.42552 136.424 8.0213 135.851 7.71901C135.008 7.40137 134.187 7.45273 133.387 7.873C132.546 8.60619 132.52 9.36328 133.31 10.1444C133.754 10.3841 134.19 10.3712 134.619 10.1059C134.828 9.92334 135.007 9.71803 135.158 9.4899C135.407 9.39312 135.593 9.46368 135.717 9.70164C135.742 9.82075 135.729 9.93624 135.678 10.0481C135.049 11.001 134.196 11.2897 133.118 10.9143C132.152 10.3107 131.812 9.45733 132.098 8.35422C132.499 7.4376 133.199 6.91788 134.196 6.79507C135.23 6.63011 136.154 6.87396 136.968 7.52653C137.569 8.03758 138.102 8.60865 138.565 9.23967C139.22 10.0107 139.997 10.6203 140.894 11.0683C142.001 11.5299 143.13 11.5941 144.282 11.2608C145.701 10.6822 146.432 9.62356 146.477 8.08474C146.412 6.47504 145.668 5.30087 144.244 4.56222C143.08 4.15842 142.034 4.35734 141.106 5.15893C140.506 5.94948 140.468 6.77074 140.991 7.62277C141.509 8.24254 142.17 8.51202 142.973 8.43122C143.334 8.53197 143.43 8.75009 143.262 9.08568C142.127 9.34465 141.177 9.02381 140.413 8.12324C139.688 7.03641 139.675 5.94567 140.375 4.85095C141.018 4.12851 141.82 3.70503 142.781 3.58053Z" fill="black"/>
<path opacity="0.988" fill-rule="evenodd" clip-rule="evenodd" d="M151.174 3.5803C152.205 3.51084 153.129 3.78674 153.945 4.408C154.997 5.44601 155.17 6.62018 154.465 7.93052C153.766 8.88587 152.823 9.30292 151.636 9.18169C151.378 9.00402 151.339 8.7859 151.52 8.52723C151.601 8.48758 151.684 8.45551 151.77 8.43099C152.886 8.52003 153.644 8.04524 154.042 7.00658C154.282 6.05939 153.994 5.32151 153.175 4.79297C151.566 3.99069 150.199 4.29224 149.076 5.69767C148.31 6.74734 148.092 7.90226 148.421 9.16244C148.832 10.366 149.66 11.1039 150.904 11.376C152.186 11.6331 153.379 11.4149 154.484 10.7216C155.05 10.3366 155.569 9.89389 156.044 9.39343C156.587 8.68326 157.197 8.03519 157.872 7.4493C159.085 6.60266 160.356 6.51281 161.683 7.17982C162.779 7.96259 163.029 8.95709 162.434 10.1634C161.739 11.1215 160.86 11.3332 159.797 10.7986C159.481 10.5979 159.231 10.3348 159.046 10.0094C158.987 9.52289 159.186 9.36247 159.643 9.52817C160.033 10.2483 160.61 10.4664 161.375 10.1826C162.028 9.67373 162.163 9.05134 161.78 8.3155C161.516 7.92444 161.151 7.68702 160.683 7.60329C159.769 7.37023 158.947 7.5499 158.219 8.14226C157.632 8.67803 157.099 9.26192 156.621 9.89389C155.745 10.8802 154.687 11.5924 153.445 12.0305C152.04 12.419 150.692 12.2779 149.403 11.607C148.328 10.9026 147.705 9.9081 147.536 8.62348C147.4 6.69437 148.125 5.18653 149.711 4.10002C150.172 3.83729 150.66 3.66405 151.174 3.5803Z" fill="black"/>
<path opacity="0.988" fill-rule="evenodd" clip-rule="evenodd" d="M8.93151 8C10.1832 8.06498 10.9018 8.71301 11.0874 9.94412C11.0319 10.7616 10.6469 11.3648 9.93245 11.7535C9.56672 11.7984 9.4063 11.638 9.45123 11.2723C9.47844 11.2114 9.51051 11.1537 9.54747 11.099C10.1418 10.7765 10.3792 10.2825 10.2597 9.61689C10.0123 9.09164 9.59521 8.80929 9.00851 8.76995C8.19278 8.89911 7.71156 9.3739 7.56485 10.1944C7.35558 11.1834 7.59942 12.0432 8.2963 12.7737C9.01363 13.4011 9.7194 14.0427 10.4137 14.6986C11.0684 15.3797 11.5689 16.1625 11.9151 17.0469C12.2537 18.1394 12.2922 19.243 12.0306 20.3577C11.4525 22.0901 10.2527 23.0591 8.43104 23.2643C6.51914 23.3382 5.04981 22.5748 4.02308 20.9737C3.31887 19.5319 3.43436 18.1588 4.36956 16.8544C5.33538 15.8411 6.45824 15.6293 7.73809 16.2192C8.84354 16.9097 9.31194 17.9042 9.14325 19.2028C8.87538 19.4776 8.6444 19.4519 8.45029 19.1258C8.52113 18.2481 8.21954 17.5359 7.5456 16.9892C6.08166 16.3222 5.06147 16.7392 4.48505 18.2403C4.14877 19.3309 4.35408 20.3061 5.10101 21.1661C6.27164 22.4004 7.6768 22.7792 9.31649 22.3018C10.452 21.8329 11.1386 20.9925 11.3761 19.7802C11.6243 18.3608 11.3164 17.0775 10.4522 15.9305C10.1135 15.5276 9.76063 15.1362 9.39348 14.7563C8.73579 14.2527 8.12622 13.6945 7.56485 13.0817C6.71094 12.0326 6.50563 10.8648 6.94889 9.5784C7.31 8.67155 7.97088 8.14541 8.93151 8Z" fill="black"/>
<path opacity="0.987" fill-rule="evenodd" clip-rule="evenodd" d="M0 23.8608C0 23.5528 0 23.2448 0 22.9368C0.264119 22.1661 0.79025 21.6591 1.5784 21.4162C2.05509 21.2937 2.50423 21.358 2.92581 21.6087C3.67897 22.2231 4.51306 22.7108 5.42815 23.0716C5.69112 23.3164 5.6783 23.5474 5.38965 23.7645C4.44904 24.1383 3.58927 24.6388 2.81032 25.2659C1.68071 25.6251 0.801684 25.2979 0.173239 24.2842C0.113219 24.1391 0.0554725 23.9982 0 23.8608ZM1.80938 22.1284C2.03659 22.1076 2.25474 22.1399 2.46384 22.2246C3.03421 22.6831 3.65017 23.0746 4.31172 23.3988C4.01656 23.5593 3.72143 23.7195 3.42628 23.88C3.06473 24.1518 2.69258 24.4082 2.30985 24.65C1.60471 24.7173 1.09783 24.4286 0.789199 23.7838C0.636622 23.1328 0.848358 22.6389 1.42441 22.3016C1.55204 22.2312 1.68036 22.1734 1.80938 22.1284Z" fill="black"/>
<path opacity="0.988" fill-rule="evenodd" clip-rule="evenodd" d="M7.50655 23.5529C9.26123 23.3943 10.6279 24.036 11.6065 25.4777C12.2019 26.6219 12.3687 27.828 12.107 29.0965C11.8413 30.1413 11.3536 31.0653 10.6441 31.8683C10.1063 32.4577 9.52243 32.9901 8.89246 33.466C8.50964 33.8101 8.16955 34.1886 7.87228 34.6017C7.38078 35.4532 7.34228 36.3256 7.75678 37.2195C8.22237 37.9948 8.8704 38.2066 9.70091 37.8547C10.356 37.3966 10.4779 36.8257 10.0666 36.1416C9.8969 35.946 9.70441 35.7793 9.48917 35.6411C9.3736 35.2176 9.53398 35.0317 9.97039 35.0829C10.8631 35.6172 11.2032 36.3937 10.9906 37.412C10.5554 38.411 9.7918 38.8664 8.69997 38.7786C7.92687 38.6089 7.36865 38.1661 7.02533 37.4505C6.50527 36.1527 6.65926 34.9466 7.4873 33.8317C7.99836 33.2308 8.56943 32.698 9.20044 32.2341C10.0082 31.5346 10.6434 30.7069 11.1061 29.751C11.6229 28.4625 11.5844 27.192 10.9906 25.9397C10.3206 24.8602 9.34538 24.3082 8.06476 24.2843C6.6499 24.3502 5.5463 24.9661 4.75398 26.1322C4.07696 27.4115 4.2117 28.5984 5.1582 29.6932C5.95564 30.3092 6.77691 30.3346 7.62204 29.7702C7.95947 29.4996 8.19685 29.1593 8.33425 28.75C8.40166 28.3658 8.45297 27.9809 8.48824 27.5951C8.61897 27.4527 8.77939 27.4076 8.96946 27.4604C9.16237 27.6086 9.23936 27.8072 9.20044 28.0571C9.14689 29.4253 8.47961 30.3427 7.19857 30.8097C5.79788 31.1388 4.7392 30.6834 4.02253 29.443C3.16857 27.5655 3.52146 25.9551 5.08121 24.6116C5.79811 24.0456 6.60656 23.6926 7.50655 23.5529Z" fill="black"/>
<path opacity="0.988" fill-rule="evenodd" clip-rule="evenodd" d="M289.74 22.5105C289.906 22.4208 290.035 22.2923 290.125 22.1256C291.043 20.9899 291.139 19.7836 290.413 18.5068C289.757 17.6193 288.917 17.3947 287.892 17.8331C287.087 18.3094 286.728 19.0152 286.814 19.9505C286.724 20.3267 286.507 20.4293 286.159 20.2584C285.901 19.1454 286.209 18.2086 287.083 17.4481C288.095 16.7326 289.147 16.6685 290.24 17.2556C291.176 17.998 291.651 18.9732 291.664 20.1814C291.626 21.2842 291.203 22.208 290.394 22.9533C288.881 24.2745 287.188 24.5698 285.312 23.8387C283.749 22.9837 282.979 21.6555 283.002 19.8542C283.003 18.7998 283.279 17.8245 283.83 16.9284C284.512 15.9258 285.34 15.0596 286.313 14.3298C286.82 13.9141 287.224 13.42 287.526 12.8477C287.844 12.0047 287.792 11.1834 287.372 10.3838C286.639 9.54224 285.882 9.5166 285.101 10.3068C284.861 10.7497 284.874 11.186 285.139 11.6157C285.322 11.8241 285.527 12.0038 285.755 12.1547C285.865 12.4811 285.75 12.6736 285.409 12.7322C284.716 12.4494 284.305 11.9361 284.177 11.1923C284.131 10.0309 284.676 9.3059 285.813 9.01717C286.838 8.91038 287.614 9.30178 288.142 10.1913C288.775 11.6387 288.582 12.9604 287.564 14.1566C287.091 14.682 286.571 15.1504 286.005 15.5617C285.243 16.2229 284.633 16.9992 284.177 17.8908C283.686 19.0696 283.647 20.2631 284.061 21.4711C284.679 22.7716 285.712 23.4391 287.16 23.473C288.141 23.463 289 23.1419 289.74 22.5105Z" fill="black"/>
<path opacity="0.989" fill-rule="evenodd" clip-rule="evenodd" d="M295.244 24.0121C295.244 24.2558 295.244 24.4999 295.244 24.7436C295.047 25.4496 294.611 25.9566 293.935 26.2642C293.415 26.5071 292.902 26.4944 292.395 26.2257C291.617 25.5986 290.756 25.0981 289.816 24.7243C289.634 24.5992 289.577 24.426 289.643 24.2046C289.661 24.1495 289.693 24.1045 289.739 24.0699C290.705 23.6833 291.591 23.1702 292.395 22.53C292.902 22.2612 293.415 22.2485 293.935 22.4915C294.611 22.799 295.047 23.3061 295.244 24.0121ZM292.973 23.0882C293.679 23.0851 294.174 23.4062 294.455 24.0506C294.582 24.6373 294.396 25.0927 293.897 25.4173C293.501 25.7095 293.09 25.7353 292.665 25.4943C292.125 25.0446 291.535 24.6723 290.894 24.3778C291.227 24.1996 291.56 24.0198 291.895 23.8389C292.251 23.5779 292.611 23.3276 292.973 23.0882Z" fill="black"/>
<path opacity="0.988" fill-rule="evenodd" clip-rule="evenodd" d="M286.659 24.5126C288.457 24.4014 289.901 25.0558 290.99 26.476C291.918 27.9762 291.88 29.4518 290.875 30.9032C289.835 31.9896 288.648 32.1759 287.314 31.4614C286.358 30.7619 285.941 29.8187 286.063 28.6318C286.175 28.4193 286.348 28.3485 286.582 28.4201C286.705 28.5044 286.782 28.6199 286.813 28.7666C286.724 29.8826 287.199 30.6399 288.238 31.0379C289.184 31.2785 289.922 30.9898 290.451 30.1717C291.254 28.5622 290.952 27.1955 289.547 26.0718C288.548 25.3384 287.444 25.1074 286.236 25.3788C284.879 25.788 284.077 26.6927 283.83 28.0929C283.637 29.3102 283.868 30.4393 284.523 31.4807C284.908 32.0458 285.35 32.5655 285.851 33.0398C286.561 33.583 287.209 34.1928 287.795 34.8684C288.642 36.0815 288.732 37.3519 288.064 38.6797C287.179 39.8747 286.107 40.0737 284.85 39.2764C284.185 38.6758 283.999 37.9505 284.292 37.1013C284.484 36.6393 284.799 36.2863 285.235 36.0426C285.721 35.9833 285.882 36.1824 285.716 36.6393C284.941 37.0774 284.749 37.6934 285.139 38.4872C285.74 39.0851 286.387 39.1428 287.083 38.6604C287.454 38.2836 287.666 37.8281 287.718 37.2938C287.801 36.6882 287.686 36.1235 287.371 35.5999C287.217 35.3947 287.063 35.1891 286.91 34.9839C286.408 34.5058 285.888 34.05 285.35 33.6173C284.364 32.7415 283.652 31.6828 283.214 30.4412C282.825 29.0361 282.966 27.6887 283.637 26.399C284.352 25.3068 285.359 24.6782 286.659 24.5126Z" fill="black"/>
<path opacity="0.988" fill-rule="evenodd" clip-rule="evenodd" d="M142.6 38.0099C144.05 37.924 145.276 38.3987 146.277 39.4343C147.403 40.9669 147.557 42.5968 146.739 44.3235C146.238 45.2732 145.5 45.9723 144.525 46.4216C143.153 46.8985 141.895 46.6934 140.752 45.8056C139.848 44.9055 139.637 43.8599 140.117 42.6681C140.751 41.4754 141.745 40.9426 143.101 41.0704C143.427 41.2683 143.453 41.4993 143.178 41.7634C142.33 41.6991 141.618 41.9751 141.041 42.5911C140.551 43.3252 140.512 44.0825 140.925 44.8624C141.519 45.5508 142.277 45.9099 143.197 45.9403C144.42 45.791 145.343 45.1881 145.969 44.131C146.645 42.8786 146.658 41.6213 146.007 40.3582C145.25 39.2772 144.205 38.7509 142.87 38.7798C141.986 38.7763 141.165 39.0008 140.406 39.4535C139.442 40.0968 138.614 40.886 137.923 41.8211C137.408 42.4274 136.798 42.9087 136.094 43.2648C135 43.6678 133.947 43.5778 132.937 42.9953C131.877 42.1018 131.716 41.0685 132.456 39.8962C133.278 39.0381 134.183 38.9419 135.17 39.6075C135.415 39.8008 135.601 40.0383 135.728 40.3197C135.751 40.7289 135.565 40.8764 135.17 40.7624C134.976 40.4525 134.719 40.2088 134.4 40.031C133.517 39.8154 132.972 40.1553 132.764 41.0512C132.747 41.6259 132.971 42.0814 133.438 42.4178C134.544 42.9433 135.584 42.8409 136.556 42.1098C137.118 41.5998 137.624 41.0415 138.077 40.4352C138.766 39.6807 139.555 39.0585 140.444 38.5681C141.131 38.2374 141.849 38.0514 142.6 38.0099Z" fill="black"/>
<path opacity="0.988" fill-rule="evenodd" clip-rule="evenodd" d="M151.608 38.0099C153.012 37.971 154.27 38.3752 155.381 39.2226C155.662 39.4393 155.931 39.6703 156.189 39.9155C156.804 40.62 157.433 41.313 158.076 41.9944C159.11 42.866 160.227 42.9814 161.425 42.3409C162.097 41.7388 162.181 41.065 161.675 40.3197C161.136 39.8285 160.577 39.8093 160.001 40.262C159.889 40.3859 159.793 40.5207 159.712 40.6662C159.464 40.886 159.246 40.8602 159.058 40.5892C159.007 40.3698 159.058 40.1773 159.211 40.0118C159.788 39.2934 160.526 39.0432 161.425 39.2611C162.274 39.6352 162.723 40.2897 162.773 41.2244C162.657 42.367 162.041 43.0858 160.925 43.3803C159.737 43.7021 158.671 43.4711 157.729 42.6873C157.091 42.1002 156.507 41.465 155.978 40.7817C155.353 40.1307 154.64 39.5979 153.841 39.1841C152.675 38.6951 151.494 38.6566 150.299 39.0686C148.99 39.6768 148.31 40.7097 148.259 42.1676C148.339 43.6555 149.006 44.7912 150.261 45.5746C151.364 46.0982 152.416 46.0081 153.418 45.3052C154.18 44.6126 154.34 43.7976 153.899 42.8606C153.385 42.0614 152.647 41.7083 151.685 41.8019C151.443 41.7083 151.36 41.5351 151.435 41.2822C151.484 41.1694 151.567 41.0989 151.685 41.0704C153.048 40.9596 154.043 41.5047 154.669 42.7066C155.231 44.5267 154.622 45.7779 152.84 46.4601C151.162 46.9617 149.757 46.5444 148.625 45.2089C147.365 43.5924 147.185 41.86 148.086 40.0118C148.912 38.7417 150.086 38.0746 151.608 38.0099Z" fill="black"/>
<path opacity="0.989" fill-rule="evenodd" clip-rule="evenodd" d="M147.759 50.2519C147.502 50.2519 147.245 50.2519 146.989 50.2519C146.199 49.9952 145.667 49.4689 145.391 48.6735C145.288 48.2489 145.327 47.8381 145.507 47.4416C146.134 46.6613 146.635 45.8016 147.008 44.8623C147.12 44.6498 147.294 44.5789 147.528 44.6505C147.597 44.6806 147.654 44.7256 147.701 44.7853C148.075 45.7258 148.575 46.5858 149.202 47.3646C149.511 48.0245 149.473 48.6662 149.087 49.2895C148.76 49.7765 148.317 50.0972 147.759 50.2519ZM147.374 45.9017C147.706 46.5874 148.11 47.2287 148.586 47.8266C148.715 48.0834 148.715 48.3398 148.586 48.5965C148.292 49.2922 147.773 49.5809 147.027 49.4627C146.37 49.1655 146.069 48.6585 146.122 47.9421C146.364 47.5594 146.621 47.1871 146.892 46.8257C147.063 46.5227 147.224 46.2147 147.374 45.9017Z" fill="black"/>
<line x1="17" y1="7.5" x2="124" y2="7.5" stroke="black"/>
<line x1="17" y1="42.5" x2="124" y2="42.5" stroke="black"/>
<line x1="170" y1="7.5" x2="277" y2="7.5" stroke="black"/>
<line x1="170" y1="42.5" x2="277" y2="42.5" stroke="black"/>
</svg>
