<svg width="8325" height="1330" viewBox="0 0 8325 1330" fill="none" xmlns="http://www.w3.org/2000/svg">
<path d="M4150.86 103.655C4142.22 80.9077 4119.24 56.8165 4088.76 57.6695C4069.9 58.2123 4046.3 68.4743 4039.11 89.7739C4032.74 108.695 4042.6 125.109 4043.74 126.919C4048.42 134.041 4054.97 139.738 4062.67 143.385C4070.38 147.033 4078.94 148.491 4087.42 147.598C4088.93 147.435 4090.33 146.682 4091.3 145.502C4092.26 144.323 4092.73 142.81 4092.59 141.291C4092.52 140.538 4092.3 139.807 4091.95 139.14C4091.59 138.472 4091.11 137.881 4090.52 137.401C4089.94 136.92 4089.27 136.56 4088.54 136.34C4087.82 136.121 4087.06 136.046 4086.3 136.121C4079.93 136.801 4073.5 135.713 4067.7 132.977C4061.91 130.241 4056.98 125.962 4053.47 120.612C4053.13 120.095 4045.29 107.429 4050.03 93.3928C4055.8 76.2807 4076.5 69.5342 4088.99 69.1723C4112.72 68.6294 4132.31 88.042 4139.76 107.687C4145.61 123.197 4146.75 147.65 4130.73 166.184C4118.44 180.426 4098.78 186.863 4075.36 184.278C4048.11 181.331 4029.43 162.694 4020.42 153.75C4017.6 150.933 4014.52 147.262 4011.26 143.411C3995.61 124.67 3971.8 96.1328 3929.6 114.486C3924.19 116.838 3909.5 128.703 3910.01 146.125C3910.43 160.057 3920.73 175.748 3937.23 177.867C3943.66 178.513 3950.13 177.239 3955.83 174.206C3961.53 171.174 3966.2 166.519 3969.24 160.833C3969.9 159.494 3970.02 157.954 3969.57 156.531C3969.12 155.109 3968.14 153.912 3966.84 153.189C3965.53 152.465 3964 152.271 3962.55 152.644C3961.11 153.018 3959.86 153.932 3959.07 155.198C3957.17 158.868 3954.21 161.889 3950.58 163.873C3946.95 165.857 3942.81 166.716 3938.68 166.339C3928.49 165.02 3921.86 154.655 3921.61 145.659C3921.24 133.64 3932.6 125.704 3934.23 124.98C3968.44 110.117 3986.53 131.753 4002.49 150.829C4005.93 154.913 4009.17 158.791 4012.38 161.97C4021.49 171.25 4042.99 192.601 4074.27 195.91C4077.96 196.318 4081.66 196.525 4085.37 196.53C4107.88 196.53 4126.77 188.776 4139.71 173.809C4155.65 155.43 4160.02 127.875 4150.86 103.655Z" fill="black"/>
<path d="M4386.33 114.485C4344.13 96.1583 4320.27 124.67 4304.49 143.514C4301.23 147.417 4298.15 151.087 4295.33 153.853C4286.32 162.797 4267.64 181.434 4240.39 184.381C4217.1 186.966 4197.31 180.478 4185.02 166.287C4169 147.753 4170.14 123.17 4175.99 107.79C4183.44 88.1451 4203.21 68.6808 4226.76 69.2754C4239.25 69.6372 4259.95 76.3838 4265.72 93.4959C4270.46 107.532 4262.62 120.198 4262.28 120.715C4258.77 126.065 4253.84 130.344 4248.05 133.08C4242.25 135.816 4235.82 136.904 4229.45 136.224C4227.93 136.08 4226.41 136.543 4225.23 137.512C4224.06 138.481 4223.31 139.877 4223.16 141.394C4223.02 142.913 4223.49 144.426 4224.45 145.606C4225.42 146.785 4226.82 147.538 4228.33 147.701C4236.81 148.594 4245.38 147.136 4253.08 143.489C4260.79 139.841 4267.34 134.144 4272.01 127.022C4273.15 125.213 4283.01 108.798 4276.64 89.877C4269.45 68.5774 4245.85 58.3154 4226.99 57.7726C4196.84 56.8161 4173.66 81.0366 4164.89 103.758C4155.68 127.978 4160.05 155.456 4175.99 173.99C4188.8 188.827 4207.82 196.711 4230.33 196.711C4234.04 196.706 4237.74 196.499 4241.43 196.091C4272.71 192.704 4294.14 171.353 4303.3 162.228C4306.5 159.049 4309.74 155.172 4313.18 151.087C4329.15 132.011 4347.23 110.375 4381.44 125.238C4383.07 125.936 4394.38 133.898 4394.07 145.918C4393.81 154.784 4387.18 165.149 4376.99 166.597C4372.87 166.965 4368.74 166.103 4365.11 164.119C4361.49 162.135 4358.53 159.12 4356.63 155.456C4355.84 154.191 4354.59 153.277 4353.14 152.903C4351.7 152.529 4350.17 152.724 4348.86 153.447C4347.56 154.17 4346.58 155.367 4346.13 156.789C4345.68 158.212 4345.8 159.752 4346.46 161.091C4349.57 166.77 4354.31 171.394 4360.06 174.373C4365.82 177.352 4372.33 178.55 4378.77 177.815C4395.28 175.696 4405.58 160.005 4406 146.073C4406.51 128.702 4391.82 116.837 4386.33 114.485Z" fill="black"/>
<path d="M4174.15 4.31696C4169.31 1.50692 4163.8 0.0268555 4158.2 0.0268555C4152.6 0.0268555 4147.09 1.50692 4142.25 4.31696C4130.96 11.839 4124.26 24.5567 4125.58 35.982C4126.38 42.8837 4129.59 47.0453 4133.35 51.8533C4135.18 54.2314 4137.28 57.023 4139.58 60.5644C4143.46 67.1361 4146.92 73.9482 4149.93 80.9592C4153.04 87.7834 4153.68 89.205 4156.69 89.9547C4157.15 90.0807 4157.63 90.1416 4158.11 90.1356C4158.61 90.1295 4159.1 90.0688 4159.58 89.9547C4162.58 89.205 4163.23 87.7833 4166.34 80.9334C4169.36 73.9333 4172.81 67.1302 4176.69 60.5644C4178.99 56.9455 4181.09 54.2314 4182.92 51.8533C4186.65 47.0453 4189.86 42.8837 4190.69 35.982C4192.06 24.5567 4185.36 11.839 4174.15 4.31696ZM4179.33 34.6378C4178.91 38.205 4177.46 40.1954 4173.94 44.7448C4172.06 47.2004 4169.67 50.2765 4167.11 54.3348C4163.83 59.7067 4160.87 65.2747 4158.26 71.0074C4155.67 65.2751 4152.72 59.7071 4149.44 54.3348C4146.85 50.2765 4144.5 47.2004 4142.61 44.7448C4139.09 40.1954 4137.64 38.205 4137.23 34.6378C4136.4 27.5552 4141.16 19.1284 4148.77 13.9586C4151.22 12.3486 4154.11 11.5195 4157.05 11.5805H4158.55C4161.8 11.3447 4165.04 12.1701 4167.79 13.9328C4175.24 19.0767 4180 27.5552 4179.17 34.6378H4179.33Z" fill="black"/>
<path d="M4345.78 1151.13C4339.35 1150.49 4332.88 1151.77 4327.18 1154.8C4321.49 1157.83 4316.82 1162.48 4313.77 1168.17C4313.11 1169.51 4312.99 1171.05 4313.44 1172.47C4313.89 1173.89 4314.87 1175.09 4316.17 1175.81C4317.48 1176.53 4319.01 1176.73 4320.46 1176.36C4321.9 1175.98 4323.15 1175.07 4323.94 1173.8C4325.85 1170.14 4328.8 1167.13 4332.43 1165.15C4336.05 1163.17 4340.18 1162.3 4344.3 1162.66C4354.5 1163.98 4361.12 1174.35 4361.38 1183.34C4361.74 1195.33 4350.38 1203.27 4348.75 1204.02C4314.54 1218.88 4296.46 1197.25 4280.49 1178.17C4277.05 1174.09 4273.82 1170.21 4270.61 1167.03C4261.45 1157.91 4240.02 1136.55 4208.71 1133.17C4181.39 1130.22 4158.15 1138.08 4143.3 1155.27C4127.36 1173.72 4122.99 1201.28 4132.2 1225.5C4140.69 1247.86 4163.25 1271.51 4192.59 1271.51H4194.17C4213.03 1270.97 4236.63 1260.68 4243.83 1239.41C4250.19 1220.49 4240.33 1204.07 4239.19 1202.26C4234.52 1195.13 4227.97 1189.43 4220.27 1185.78C4212.56 1182.13 4204 1180.68 4195.52 1181.58C4194.76 1181.65 4194.02 1181.86 4193.34 1182.22C4192.67 1182.57 4192.07 1183.05 4191.58 1183.63C4191.09 1184.21 4190.71 1184.89 4190.49 1185.61C4190.26 1186.34 4190.17 1187.11 4190.24 1187.86C4190.3 1188.62 4190.52 1189.36 4190.87 1190.04C4191.22 1190.71 4191.7 1191.31 4192.29 1191.8C4192.87 1192.29 4193.55 1192.66 4194.27 1192.89C4195 1193.12 4195.77 1193.2 4196.53 1193.14C4202.9 1192.45 4209.34 1193.54 4215.13 1196.27C4220.92 1199.01 4225.85 1203.29 4229.36 1208.65C4229.7 1209.16 4237.54 1221.83 4232.8 1235.87C4227.03 1252.98 4206.33 1259.72 4193.83 1260.09C4170.55 1260.68 4150.52 1241.22 4143.07 1221.57C4137.22 1206.19 4136.08 1181.61 4152.1 1163.07C4164.39 1148.83 4184.08 1142.4 4207.47 1144.98C4234.72 1147.93 4253.4 1166.56 4262.41 1175.51C4265.23 1178.33 4268.3 1182 4271.57 1185.85C4287.35 1204.69 4311.21 1233.2 4353.41 1214.88C4358.82 1212.52 4373.51 1200.66 4373 1183.24C4372.58 1168.94 4362.28 1153.25 4345.78 1151.13Z" fill="black"/>
<path d="M4106.71 1155.11C4091.86 1137.92 4068.62 1130.07 4041.27 1133.01C4009.99 1136.4 3988.56 1157.75 3979.4 1166.87C3976.2 1170.05 3972.96 1173.93 3969.52 1178.02C3953.55 1197.09 3935.44 1218.73 3901.26 1203.86C3899.63 1203.17 3888.32 1195.23 3888.63 1183.19C3888.89 1174.29 3895.52 1163.93 3905.71 1162.51C3909.83 1162.14 3913.96 1163.01 3917.59 1164.99C3921.21 1166.97 3924.17 1169.99 3926.07 1173.65C3926.86 1174.91 3928.11 1175.83 3929.56 1176.2C3931 1176.57 3932.53 1176.38 3933.84 1175.66C3935.14 1174.93 3936.12 1173.74 3936.57 1172.31C3937.02 1170.89 3936.9 1169.35 3936.24 1168.01C3933.19 1162.33 3928.52 1157.68 3922.82 1154.65C3917.13 1151.62 3910.66 1150.34 3904.24 1150.98C3887.73 1153.1 3877.43 1168.79 3877.01 1182.72C3876.47 1200.14 3891.19 1212.01 3896.6 1214.36C3938.78 1232.69 3962.66 1204.18 3978.45 1185.33C3981.71 1181.43 3984.79 1177.76 3987.61 1174.99C3996.61 1166.05 4015.29 1147.41 4042.54 1144.46C4065.96 1141.88 4085.62 1148.37 4097.91 1162.56C4113.93 1181.09 4112.79 1205.67 4106.94 1221.05C4099.49 1240.7 4079.49 1260.24 4056.18 1259.57C4043.68 1259.21 4022.98 1252.46 4017.21 1235.35C4012.47 1221.31 4020.31 1208.65 4020.65 1208.13C4024.17 1202.78 4029.09 1198.5 4034.88 1195.76C4040.68 1193.02 4047.11 1191.94 4053.49 1192.62C4054.24 1192.7 4055 1192.63 4055.73 1192.41C4056.45 1192.19 4057.13 1191.83 4057.71 1191.35C4058.3 1190.87 4058.78 1190.28 4059.13 1189.61C4059.49 1188.94 4059.71 1188.2 4059.77 1187.45C4059.91 1185.93 4059.45 1184.42 4058.48 1183.25C4057.51 1182.07 4056.11 1181.33 4054.6 1181.17C4046.12 1180.26 4037.55 1181.71 4029.84 1185.36C4022.14 1189.01 4015.59 1194.72 4010.92 1201.85C4009.78 1203.66 3999.92 1220.07 4006.29 1238.99C4013.48 1260.27 4037.08 1270.56 4055.94 1271.1H4057.52C4086.99 1271.1 4109.43 1247.45 4117.92 1225.09C4127.02 1201.12 4122.65 1173.57 4106.71 1155.11Z" fill="black"/>
<path d="M4157.51 1293.02C4156.7 1286.12 4153.49 1281.95 4149.74 1277.15C4147.91 1274.77 4145.81 1271.98 4143.51 1268.44C4139.63 1261.86 4136.17 1255.05 4133.16 1248.04C4130.05 1241.22 4129.4 1239.79 4126.4 1239.05C4125.92 1238.93 4125.42 1238.87 4124.93 1238.86C4124.44 1238.84 4123.95 1238.91 4123.48 1239.05C4120.48 1239.79 4119.83 1241.22 4116.73 1248.04C4113.71 1255.05 4110.26 1261.86 4106.38 1268.44C4104.07 1272.05 4101.98 1274.77 4100.14 1277.15C4096.41 1281.95 4093.2 1286.12 4092.38 1293.02C4091.06 1304.44 4097.76 1317.16 4109.04 1324.68C4113.76 1327.78 4119.36 1329.29 4125.01 1328.97H4126.25C4131.47 1329.05 4136.59 1327.55 4140.95 1324.66C4152.12 1317.16 4158.83 1304.44 4157.51 1293.02ZM4134.4 1314.99C4131.66 1316.77 4128.42 1317.61 4125.16 1317.37H4124.62C4121.36 1317.61 4118.11 1316.77 4115.38 1314.99C4107.77 1309.82 4103.01 1301.44 4103.84 1294.31C4104.25 1290.74 4105.7 1288.75 4109.22 1284.2C4111.11 1281.62 4113.47 1278.67 4116.05 1274.64C4119.34 1269.26 4122.29 1263.68 4124.9 1257.94C4127.51 1263.68 4130.45 1269.26 4133.73 1274.64C4136.31 1278.67 4138.67 1281.75 4140.56 1284.2C4144.08 1288.75 4145.52 1290.74 4145.94 1294.31C4146.77 1301.44 4142.01 1310 4134.4 1314.99Z" fill="black"/>
<path d="M151.139 815.277C155.253 811.839 159.109 808.608 162.317 805.403C171.425 796.278 192.799 774.849 196.188 743.598C199.19 716.301 191.427 693.089 174.065 678.226C155.615 662.303 128.006 657.96 103.761 667.136C80.9902 675.77 56.8742 698.827 57.7281 729.045C58.2715 747.915 68.5699 771.463 89.8914 778.649C108.781 785.034 125.263 775.185 127.075 774.022C134.187 769.339 139.877 762.798 143.527 755.109C147.177 747.421 148.646 738.879 147.775 730.415C147.586 728.926 146.828 727.568 145.66 726.625C144.492 725.682 143.004 725.226 141.507 725.352C140.011 725.479 138.621 726.179 137.629 727.305C136.636 728.432 136.118 729.898 136.183 731.397C136.872 737.763 135.787 744.195 133.047 749.984C130.308 755.772 126.02 760.692 120.657 764.199C120.114 764.535 107.461 772.394 93.3846 767.637C76.462 762.002 69.812 741.323 69.3721 728.735C68.6735 705.264 88.2354 685.438 107.901 677.993C123.426 672.151 147.904 671.014 166.483 687.014C180.715 699.293 187.184 718.964 184.596 742.331C181.646 769.55 163.016 788.213 154.037 797.209C151.216 800.026 147.542 803.102 143.687 806.359C124.798 822.127 96.2568 845.986 114.603 888.12C116.905 893.444 128.42 907.713 145.369 907.713H146.274C160.221 907.299 175.928 897.012 178.049 880.546C178.705 874.13 177.437 867.665 174.405 861.971C171.373 856.278 166.715 851.613 161.023 848.571C160.355 848.137 159.604 847.846 158.819 847.715C158.033 847.583 157.228 847.614 156.455 847.805C155.681 847.997 154.956 848.345 154.322 848.828C153.689 849.311 153.162 849.919 152.773 850.614C152.385 851.309 152.143 852.076 152.063 852.868C151.983 853.66 152.067 854.46 152.309 855.218C152.551 855.976 152.947 856.677 153.471 857.277C153.995 857.876 154.637 858.362 155.357 858.703C159.024 860.608 162.043 863.559 164.029 867.181C166.014 870.803 166.878 874.933 166.509 879.047C165.215 889.386 154.813 895.848 145.808 896.107C133.621 896.443 125.833 885.147 125.108 883.518C110.385 849.32 132.043 831.226 151.139 815.277Z" fill="black"/>
<path d="M196.189 576.303C192.799 545.052 171.426 523.649 162.318 514.498C159.109 511.319 155.254 508.062 151.139 504.65C132.043 488.675 110.385 470.607 125.264 436.434C125.962 434.806 133.751 423.51 145.964 423.82C154.84 424.104 165.242 430.696 166.665 440.88C167.055 444.996 166.2 449.135 164.212 452.761C162.224 456.387 159.194 459.335 155.512 461.223C154.828 461.586 154.222 462.081 153.732 462.68C153.241 463.28 152.875 463.971 152.656 464.713C152.436 465.455 152.367 466.234 152.452 467.003C152.537 467.773 152.776 468.517 153.153 469.193C153.53 469.87 154.039 470.464 154.649 470.941C155.259 471.418 155.958 471.769 156.705 471.973C157.453 472.177 158.234 472.23 159.002 472.128C159.77 472.027 160.51 471.773 161.179 471.382C166.867 468.334 171.52 463.669 174.551 457.977C177.582 452.284 178.854 445.822 178.205 439.407C176.083 422.915 160.377 412.627 146.43 412.214C129.119 411.852 117.113 426.379 114.758 431.807C96.4126 473.941 124.953 497.774 143.842 513.568C147.724 516.799 151.398 519.875 154.193 522.718C163.146 531.688 181.776 550.377 184.726 577.57C187.313 600.834 180.819 620.608 166.613 632.887C148.034 648.913 123.427 647.75 108.031 641.908C88.3653 634.463 68.8033 614.663 69.502 591.192C69.8384 578.707 76.5919 558.054 93.7215 552.264C107.798 547.533 120.451 555.365 120.994 555.701C126.355 559.211 130.641 564.131 133.38 569.919C136.12 575.707 137.206 582.138 136.52 588.504C136.423 589.28 136.484 590.067 136.699 590.819C136.914 591.57 137.278 592.271 137.771 592.879C138.263 593.487 138.873 593.989 139.564 594.356C140.255 594.724 141.013 594.948 141.792 595.015C142.572 595.083 143.357 594.993 144.101 594.751C144.845 594.509 145.533 594.119 146.123 593.605C146.713 593.092 147.193 592.464 147.535 591.761C147.877 591.058 148.073 590.293 148.112 589.512C148.988 581.043 147.521 572.497 143.871 564.803C140.221 557.109 134.528 550.564 127.411 545.879C125.6 544.741 109.143 534.893 90.2283 541.252C68.9068 548.438 58.6084 572.012 58.065 590.856C57.2111 621.099 81.353 644.157 104.098 652.894C112.409 656.029 121.218 657.641 130.103 657.65C146.288 657.816 162 652.196 174.402 641.804C191.428 626.838 199.19 603.625 196.189 576.303Z" fill="black"/>
<path d="M90.0725 658.374C89.3222 655.401 87.899 654.729 81.042 651.627C74.0262 648.612 67.2075 645.159 60.6262 641.288C57.6145 639.362 54.704 637.282 51.9061 635.058C47.0932 631.362 42.9273 628.156 36.0185 627.303C24.5815 626.011 11.8507 632.654 4.34681 643.924C1.51617 648.764 0.0244141 654.268 0.0244141 659.873C0.0244141 665.478 1.51617 670.982 4.34681 675.822C11.2297 686.161 22.4597 692.598 33.1204 692.598C34.0885 692.598 35.056 692.547 36.0185 692.443C42.9273 691.641 47.0932 688.436 51.9061 684.688C54.705 682.473 57.6155 680.402 60.6262 678.484C67.1991 674.598 74.0189 671.144 81.042 668.145C87.8731 665.017 89.2963 664.371 90.0725 661.398C90.3136 660.431 90.3136 659.419 90.0725 658.451V658.374ZM54.3901 668.713C50.3277 671.298 47.2744 673.65 44.7903 675.563C40.2362 679.079 38.2438 680.526 34.673 680.914C27.5572 681.715 19.1476 677.011 13.9725 669.385C12.1832 666.666 11.3545 663.427 11.6178 660.183V659.614C11.3566 656.363 12.1849 653.116 13.9725 650.386C18.656 643.356 26.2893 638.78 33.0169 638.78C33.5603 638.78 34.1037 638.78 34.6212 638.78C38.192 639.194 40.1845 640.641 44.7644 644.157C47.2226 646.07 50.2759 648.422 54.3384 651.007C59.7277 654.278 65.3097 657.222 71.054 659.821C65.2915 662.427 59.6921 665.38 54.2866 668.662L54.3901 668.713Z" fill="black"/>
<path d="M8234.36 543.733C8215.41 537.375 8198.98 547.223 8197.15 548.36C8190.03 553.045 8184.34 559.591 8180.69 567.285C8177.04 574.978 8175.57 583.525 8176.45 591.994C8176.48 592.774 8176.68 593.539 8177.02 594.243C8177.36 594.946 8177.84 595.573 8178.43 596.087C8179.02 596.601 8179.71 596.99 8180.46 597.233C8181.2 597.475 8181.99 597.565 8182.77 597.497C8183.55 597.429 8184.3 597.205 8184.99 596.838C8185.68 596.471 8186.29 595.969 8186.79 595.361C8187.28 594.753 8187.64 594.052 8187.86 593.3C8188.07 592.549 8188.13 591.761 8188.04 590.985C8187.35 584.62 8188.44 578.189 8191.18 572.401C8193.92 566.612 8198.2 561.692 8203.56 558.183C8204.08 557.847 8216.73 550.015 8230.81 554.745C8247.94 560.535 8254.69 581.189 8255.06 593.674C8255.73 617.119 8236.17 636.945 8216.5 644.389C8200.98 650.257 8176.5 651.394 8157.92 635.368C8143.69 623.09 8137.22 603.445 8139.81 580.051C8142.76 552.832 8161.39 534.169 8170.36 525.174C8173.19 522.356 8176.86 519.28 8180.72 516.023C8199.6 500.255 8228.14 476.423 8209.8 434.289C8207.44 428.861 8195.65 414.152 8178.13 414.695C8164.18 415.109 8148.47 425.397 8146.35 441.888C8145.7 448.303 8146.98 454.766 8150.01 460.458C8153.04 466.15 8157.69 470.816 8163.38 473.864C8164.72 474.576 8166.3 474.733 8167.76 474.302C8169.22 473.87 8170.45 472.885 8171.19 471.556C8171.93 470.227 8172.12 468.661 8171.72 467.193C8171.32 465.726 8170.36 464.473 8169.05 463.705C8165.36 461.816 8162.33 458.869 8160.35 455.242C8158.36 451.616 8157.5 447.478 8157.89 443.362C8159.19 433.177 8169.59 426.586 8178.59 426.302C8190.65 425.965 8198.57 437.287 8199.29 438.916C8214.17 473.088 8192.51 491.157 8173.42 507.131C8169.3 510.543 8165.45 513.8 8162.24 516.98C8153.13 526.13 8131.76 547.533 8128.37 578.811C8125.39 606.107 8133.26 629.319 8150.49 644.183C8162.89 654.574 8178.61 660.194 8194.79 660.028C8203.63 660.003 8212.4 658.392 8220.67 655.272C8243.44 646.638 8267.55 623.581 8266.7 593.234C8265.95 574.494 8255.65 550.919 8234.36 543.733Z" fill="black"/>
<path d="M8220.46 669.618C8196.21 660.442 8168.71 664.784 8150.16 680.707C8132.92 695.57 8125.06 718.783 8128.03 746.079C8131.42 777.356 8152.8 798.759 8161.9 807.884C8165.11 811.089 8168.97 814.321 8173.08 817.758C8192.18 833.707 8213.84 851.802 8198.96 885.974C8198.26 887.602 8190.34 898.898 8178.26 898.562C8169.38 898.304 8158.98 891.712 8157.56 881.502C8157.19 877.389 8158.05 873.259 8160.04 869.637C8162.02 866.015 8165.04 863.064 8168.71 861.159C8169.43 860.817 8170.07 860.332 8170.59 859.732C8171.12 859.133 8171.51 858.432 8171.76 857.674C8172 856.915 8172.08 856.115 8172 855.324C8171.92 854.532 8171.68 853.764 8171.29 853.069C8170.9 852.375 8170.38 851.767 8169.74 851.284C8169.11 850.801 8168.38 850.452 8167.61 850.261C8166.84 850.069 8166.03 850.038 8165.25 850.17C8164.46 850.302 8163.71 850.593 8163.04 851.026C8157.35 854.069 8152.69 858.733 8149.66 864.427C8146.63 870.12 8145.36 876.586 8146.02 883.001C8148.14 899.467 8163.84 909.755 8177.79 910.169H8178.7C8195.65 910.169 8207.16 895.874 8209.46 890.575C8227.81 848.441 8199.27 824.583 8180.38 808.815C8176.5 805.558 8172.82 802.482 8170.03 799.664C8161.05 790.695 8142.42 772.006 8139.47 744.787C8136.88 721.523 8143.38 701.748 8157.58 689.47C8176.16 673.469 8200.74 674.607 8216.16 680.449C8235.83 687.893 8255.39 707.719 8254.72 731.19C8254.36 743.649 8247.6 764.329 8230.47 770.093C8216.4 774.849 8203.74 766.991 8203.23 766.681C8197.87 763.165 8193.58 758.24 8190.84 752.448C8188.1 746.656 8187.02 740.222 8187.7 733.853C8187.8 733.075 8187.74 732.285 8187.53 731.53C8187.31 730.776 8186.95 730.073 8186.45 729.463C8185.96 728.853 8185.35 728.35 8184.65 727.982C8183.96 727.615 8183.2 727.391 8182.42 727.325C8181.64 727.258 8180.85 727.351 8180.1 727.596C8179.36 727.842 8178.67 728.236 8178.08 728.754C8177.49 729.272 8177.01 729.903 8176.67 730.611C8176.33 731.318 8176.14 732.087 8176.11 732.87C8175.23 741.339 8176.7 749.886 8180.35 757.579C8184 765.273 8189.69 771.819 8196.81 776.503C8198.65 777.641 8215.08 787.489 8234.02 781.105C8255.31 773.919 8265.61 750.37 8266.16 731.5C8267.35 701.309 8243.23 678.251 8220.46 669.618Z" fill="black"/>
<path d="M8319.87 646.612C8312.37 635.342 8299.59 628.518 8288.2 629.966C8281.29 630.767 8277.13 633.972 8272.31 637.72C8269.93 639.556 8267.14 641.649 8263.59 643.95C8257.02 647.826 8250.2 651.28 8243.18 654.289C8236.35 657.391 8234.9 658.038 8234.15 661.036C8233.94 661.999 8233.94 662.994 8234.15 663.957C8234.9 666.956 8236.32 667.602 8243.18 670.729C8250.2 673.738 8257.02 677.192 8263.59 681.069C8267.22 683.37 8269.93 685.463 8272.31 687.299C8277.13 691.021 8281.29 694.226 8288.2 695.053C8289.16 695.157 8290.13 695.209 8291.1 695.208C8301.73 695.208 8312.99 688.746 8319.87 678.407C8322.7 673.572 8324.2 668.072 8324.2 662.471C8324.2 656.87 8322.7 651.369 8319.87 646.535V646.612ZM8312.55 662.846C8312.81 666.089 8311.98 669.327 8310.2 672.048C8305.02 679.673 8296.61 684.378 8289.5 683.576C8285.95 683.163 8283.96 681.715 8279.4 678.2C8276.82 676.313 8273.87 673.961 8269.8 671.376C8264.42 668.094 8258.84 665.151 8253.09 662.561C8258.84 659.963 8264.42 657.01 8269.8 653.721C8273.87 651.136 8276.95 648.784 8279.4 646.897C8283.96 643.381 8285.95 641.934 8289.5 641.52C8296.59 640.693 8305.02 645.449 8310.2 653.049C8311.98 655.779 8312.81 659.025 8312.55 662.277V662.846Z" fill="black"/>
<path d="M776.474 23.7553H198.311C196.252 23.7553 194.277 24.5724 192.822 26.0266C191.366 27.4809 190.548 29.4534 190.548 31.51C190.5 74.2786 173.47 115.281 143.194 145.521C112.919 175.761 71.8711 192.767 29.0586 192.808C26.9998 192.808 25.0253 193.625 23.5695 195.079C22.1137 196.533 21.2959 198.506 21.2959 200.562V564.775C21.2959 566.831 22.1137 568.804 23.5695 570.258C25.0253 571.712 26.9998 572.529 29.0586 572.529C31.1174 572.529 33.0918 571.712 34.5476 570.258C36.0034 568.804 36.8212 566.831 36.8212 564.775V208.059C81.0086 206.072 122.855 187.65 154.139 156.413C185.423 125.175 203.883 83.38 205.892 39.2389H776.474C778.533 39.2389 780.507 38.4219 781.963 36.9676C783.419 35.5133 784.237 33.5409 784.237 31.4842C784.237 29.4275 783.419 27.4551 781.963 26.0008C780.507 24.5465 778.533 23.7295 776.474 23.7295V23.7553Z" fill="black"/>
<path d="M8291.33 195.289C8248.52 195.241 8207.47 178.229 8177.2 147.986C8146.92 117.742 8129.89 76.7366 8129.84 33.9656C8129.84 31.909 8129.03 29.9365 8127.57 28.4822C8126.11 27.0279 8124.14 26.2109 8122.08 26.2109H7560.79C7558.73 26.2109 7556.75 27.0279 7555.3 28.4822C7553.84 29.9365 7553.03 31.909 7553.03 33.9656C7553.03 36.0223 7553.84 37.9947 7555.3 39.449C7556.75 40.9033 7558.73 41.7203 7560.79 41.7203H8114.53C8116.52 85.8751 8134.97 127.689 8166.25 158.943C8197.54 190.197 8239.4 208.63 8283.6 210.618V567.334C8283.6 569.39 8284.41 571.363 8285.87 572.817C8287.33 574.271 8289.3 575.088 8291.36 575.088C8293.42 575.088 8295.39 574.271 8296.85 572.817C8298.3 571.363 8299.12 569.39 8299.12 567.334V203.044C8299.12 202.023 8298.92 201.013 8298.53 200.07C8298.14 199.128 8297.56 198.272 8296.84 197.551C8296.11 196.831 8295.26 196.26 8294.31 195.872C8293.37 195.484 8292.35 195.286 8291.33 195.289Z" fill="black"/>
<path d="M7614.2 26H4286V41.5094H7614.2V26Z" fill="black"/>
<path d="M4022 1286H719V1301.51H4022V1286Z" fill="black"/>
<path d="M7587 1288H4226V1303.51H7587V1288Z" fill="black"/>
<path d="M4022 24H719V39.5094H4022V24Z" fill="black"/>
<path d="M8291.33 752.593C8289.27 752.593 8287.3 753.41 8285.84 754.865C8284.39 756.319 8283.57 758.291 8283.57 760.348V1119.65C8239.37 1121.64 8197.51 1140.07 8166.23 1171.32C8134.94 1202.58 8116.49 1244.39 8114.5 1288.55H7560.76C7558.7 1288.55 7556.73 1289.36 7555.27 1290.82C7553.82 1292.27 7553 1294.24 7553 1296.3C7553 1298.36 7553.82 1300.33 7555.27 1301.78C7556.73 1303.24 7558.7 1304.06 7560.76 1304.06H8122.08C8124.14 1304.06 8126.11 1303.24 8127.57 1301.78C8129.03 1300.33 8129.84 1298.36 8129.84 1296.3C8129.89 1253.53 8146.92 1212.52 8177.19 1182.27C8207.47 1152.02 8248.52 1135.01 8291.33 1134.95C8293.39 1134.95 8295.37 1134.13 8296.82 1132.68C8298.28 1131.23 8299.1 1129.25 8299.1 1127.2V760.141C8299.04 758.121 8298.2 756.201 8296.75 754.791C8295.3 753.381 8293.36 752.593 8291.33 752.593Z" fill="black"/>
<path d="M776.474 1286.14H205.892C203.902 1241.99 185.45 1200.17 154.164 1168.92C122.879 1137.67 81.0214 1119.23 36.8212 1117.25V757.944C36.8212 755.887 36.0034 753.915 34.5476 752.461C33.0918 751.006 31.1174 750.189 29.0586 750.189C26.9998 750.189 25.0253 751.006 23.5695 752.461C22.1137 753.915 21.2959 755.887 21.2959 757.944V1125C21.2959 1127.06 22.1137 1129.03 23.5695 1130.48C25.0253 1131.94 26.9998 1132.75 29.0586 1132.75C71.878 1132.8 112.929 1149.82 143.205 1180.07C173.48 1210.32 190.507 1251.33 190.548 1294.1C190.548 1296.16 191.366 1298.13 192.822 1299.59C194.277 1301.04 196.252 1301.86 198.311 1301.86H776.474C778.533 1301.86 780.507 1301.04 781.963 1299.59C783.419 1298.13 784.237 1296.16 784.237 1294.1C784.237 1292.05 783.419 1290.07 781.963 1288.62C780.507 1287.17 778.533 1286.35 776.474 1286.35V1286.14Z" fill="black"/>
<path d="M122.314 25.6938H29.1618C28.3899 25.6766 27.6222 25.8137 26.904 26.0969C26.1858 26.3802 25.5315 26.804 24.9795 27.3433C24.4275 27.8827 23.9889 28.5269 23.6896 29.2379C23.3902 29.949 23.2361 30.7126 23.2363 31.484V124.54C23.2363 126.083 23.8497 127.562 24.9416 128.653C26.0334 129.744 27.5142 130.356 29.0583 130.356C55.3069 130.322 80.4722 119.898 99.0424 101.366C117.613 82.8341 128.074 57.7056 128.136 31.484C128.136 30.7214 127.985 29.9664 127.692 29.2622C127.399 28.558 126.97 27.9186 126.429 27.3806C125.888 26.8426 125.246 26.4166 124.54 26.1271C123.834 25.8377 123.077 25.6904 122.314 25.6938ZM34.8803 118.75V37.3H116.388C114.957 58.4169 105.908 78.2987 90.9197 93.2577C75.9311 108.217 56.0203 117.237 34.8803 118.647V118.75Z" fill="black"/>
<path d="M8286.42 28.1753H8193.26C8191.73 28.1753 8190.25 28.7853 8189.17 29.8712C8188.08 30.9571 8187.47 32.4298 8187.47 33.9655C8187.5 60.2026 8197.94 85.3577 8216.51 103.913C8235.08 122.467 8260.26 132.907 8286.52 132.941C8288.06 132.941 8289.55 132.329 8290.64 131.238C8291.73 130.147 8292.34 128.668 8292.34 127.125V34.0689C8292.36 33.2888 8292.21 32.514 8291.92 31.7909C8291.63 31.0677 8291.19 30.4112 8290.64 29.8608C8290.08 29.3103 8289.42 28.8773 8288.7 28.5877C8287.97 28.298 8287.2 28.1577 8286.42 28.1753ZM8280.59 121.232C8259.47 119.799 8239.58 110.768 8224.61 95.8123C8209.64 80.8562 8200.6 60.9875 8199.16 39.8849H8280.59V121.232Z" fill="black"/>
<path d="M8286.42 1191.95C8260.16 1191.98 8234.98 1202.41 8216.41 1220.96C8197.84 1239.51 8187.39 1264.66 8187.37 1290.9C8187.36 1291.66 8187.51 1292.42 8187.8 1293.12C8188.09 1293.83 8188.52 1294.47 8189.05 1295.01C8189.59 1295.55 8190.23 1295.98 8190.94 1296.27C8191.64 1296.56 8192.4 1296.71 8193.16 1296.71H8286.31C8287.86 1296.71 8289.34 1296.1 8290.43 1295.01C8291.52 1293.92 8292.14 1292.44 8292.14 1290.9V1197.84C8292.15 1197.08 8292.01 1196.32 8291.73 1195.61C8291.45 1194.9 8291.03 1194.26 8290.5 1193.71C8289.97 1193.16 8289.34 1192.72 8288.64 1192.42C8287.93 1192.12 8287.18 1191.96 8286.42 1191.95ZM8280.6 1285.01H8199.16C8200.6 1263.9 8209.64 1244.03 8224.61 1229.07C8239.58 1214.11 8259.47 1205.08 8280.6 1203.63V1285.01Z" fill="black"/>
<path d="M29.0583 1189.47C28.295 1189.46 27.5385 1189.61 26.8323 1189.9C26.1261 1190.19 25.4841 1190.62 24.9431 1191.15C24.4021 1191.69 23.9729 1192.33 23.68 1193.04C23.3871 1193.74 23.2363 1194.49 23.2363 1195.26V1288.31C23.2363 1289.86 23.8497 1291.34 24.9416 1292.43C26.0334 1293.52 27.5142 1294.13 29.0583 1294.13H122.21C123.754 1294.13 125.235 1293.52 126.327 1292.43C127.419 1291.34 128.032 1289.86 128.032 1288.31C127.971 1262.11 117.523 1237 98.974 1218.48C80.4254 1199.95 55.2866 1189.52 29.0583 1189.47ZM34.8803 1282.52V1201.25C56.0207 1202.67 75.9288 1211.7 90.9158 1226.66C105.903 1241.63 114.953 1261.51 116.388 1282.63L34.8803 1282.52Z" fill="black"/>
<path d="M36.4844 456.674H21.5801V598.12H36.4844V456.674Z" fill="black"/>
<path d="M36.4844 721.575H21.5801V863.02H36.4844V721.575Z" fill="black"/>
<path d="M8298.92 459.156H8284.01V600.601H8298.92V459.156Z" fill="black"/>
<path d="M8298.92 724.056H8284.01V865.502H8298.92V724.056Z" fill="black"/>
</svg>
