<svg width="196" height="51" viewBox="0 0 196 51" fill="none" xmlns="http://www.w3.org/2000/svg">
<path opacity="0.989" fill-rule="evenodd" clip-rule="evenodd" d="M98.0548 0C98.273 0 98.4909 0 98.7092 0C99.1566 0.0923982 99.5354 0.31055 99.8449 0.654457C100.313 1.17232 100.492 1.77545 100.384 2.46384C100.348 2.5983 100.296 2.72662 100.23 2.84881C99.6028 3.62777 99.1023 4.48754 98.7285 5.42815C98.6034 5.60997 98.4301 5.66772 98.2088 5.60139C98.1537 5.58348 98.1087 5.55138 98.074 5.50514C97.8407 4.99994 97.597 4.49947 97.3426 4.00374C97.1158 3.62299 96.859 3.26368 96.5726 2.92581C96.1849 2.1173 96.2877 1.37302 96.8806 0.692955C97.1967 0.326732 97.5878 0.0957467 98.0548 0ZM98.0548 0.76995C98.9795 0.7129 99.5184 1.14279 99.6717 2.05962C99.6601 2.24785 99.6024 2.42108 99.4984 2.57933C99.0388 3.12571 98.6669 3.72884 98.382 4.38871C98.0613 3.69543 97.6636 3.05381 97.1886 2.46384C97.03 2.06437 97.0816 1.69223 97.3426 1.34741C97.5281 1.08541 97.7657 0.892922 98.0548 0.76995Z" fill="black"/>
<path opacity="0.989" fill-rule="evenodd" clip-rule="evenodd" d="M93.7809 3.58053C95.037 3.51916 96.0957 3.94264 96.9569 4.85095C98.4021 6.53953 98.6204 8.37455 97.6114 10.3561C96.8241 11.5104 95.7269 12.1328 94.3198 12.2232C93.1029 12.3168 91.9734 12.0473 90.9321 11.4148C89.9296 10.733 89.0634 9.90533 88.3335 8.93169C87.9177 8.42552 87.4238 8.0213 86.8513 7.71901C86.0082 7.40137 85.1871 7.45273 84.3875 7.873C83.5459 8.60619 83.5201 9.36328 84.3105 10.1444C84.7536 10.3841 85.1898 10.3712 85.6194 10.1059C85.8277 9.92334 86.0075 9.71803 86.1584 9.4899C86.4067 9.39312 86.593 9.46368 86.7166 9.70164C86.7416 9.82075 86.7289 9.93624 86.6781 10.0481C86.049 11.001 85.1959 11.2897 84.118 10.9143C83.1521 10.3107 82.8122 9.45733 83.0978 8.35422C83.4993 7.4376 84.1988 6.91788 85.1959 6.79507C86.23 6.63011 87.1539 6.87396 87.9678 7.52653C88.5687 8.03758 89.1015 8.60865 89.5654 9.23967C90.2202 10.0107 90.9967 10.6203 91.8945 11.0683C93.0005 11.5299 94.1297 11.5941 95.2823 11.2608C96.7005 10.6822 97.432 9.62356 97.4766 8.08474C97.4123 6.47504 96.6678 5.30087 95.2438 4.56222C94.0804 4.15842 93.0344 4.35734 92.1062 5.15893C91.5064 5.94948 91.4679 6.77074 91.9907 7.62277C92.5093 8.24254 93.1699 8.51202 93.9734 8.43122C94.3341 8.53197 94.4303 8.75009 94.2621 9.08568C93.1268 9.34465 92.1775 9.02381 91.4133 8.12324C90.688 7.03641 90.6753 5.94567 91.3748 4.85095C92.0177 4.12851 92.8196 3.70503 93.7809 3.58053Z" fill="black"/>
<path opacity="0.988" fill-rule="evenodd" clip-rule="evenodd" d="M102.174 3.5803C103.205 3.51084 104.129 3.78674 104.945 4.408C105.997 5.44601 106.17 6.62018 105.465 7.93052C104.766 8.88587 103.823 9.30292 102.636 9.18169C102.378 9.00402 102.339 8.7859 102.52 8.52723C102.601 8.48758 102.684 8.45551 102.77 8.43099C103.886 8.52003 104.644 8.04524 105.042 7.00658C105.282 6.05939 104.994 5.32151 104.175 4.79297C102.566 3.99069 101.199 4.29224 100.076 5.69767C99.3102 6.74734 99.0919 7.90226 99.4211 9.16244C99.8322 10.366 100.66 11.1039 101.904 11.376C103.186 11.6331 104.379 11.4149 105.484 10.7216C106.05 10.3366 106.569 9.89389 107.044 9.39343C107.587 8.68326 108.197 8.03519 108.872 7.4493C110.085 6.60266 111.356 6.51281 112.683 7.17982C113.779 7.96259 114.029 8.95709 113.434 10.1634C112.739 11.1215 111.86 11.3332 110.797 10.7986C110.481 10.5979 110.231 10.3348 110.046 10.0094C109.987 9.52289 110.186 9.36247 110.643 9.52817C111.033 10.2483 111.61 10.4664 112.375 10.1826C113.028 9.67373 113.163 9.05134 112.78 8.3155C112.516 7.92444 112.151 7.68702 111.683 7.60329C110.769 7.37023 109.947 7.5499 109.219 8.14226C108.632 8.67803 108.099 9.26192 107.621 9.89389C106.745 10.8802 105.687 11.5924 104.445 12.0305C103.04 12.419 101.692 12.2779 100.403 11.607C99.3279 10.9026 98.7054 9.9081 98.5356 8.62348C98.3997 6.69437 99.125 5.18653 100.711 4.10002C101.172 3.83729 101.66 3.66405 102.174 3.5803Z" fill="black"/>
<path opacity="0.988" fill-rule="evenodd" clip-rule="evenodd" d="M93.6001 38.0099C95.0503 37.924 96.2757 38.3987 97.2766 39.4343C98.4031 40.9669 98.5571 42.5968 97.7386 44.3235C97.2381 45.2732 96.5001 45.9723 95.525 46.4216C94.1526 46.8985 92.8948 46.6934 91.7522 45.8056C90.8483 44.9055 90.6366 43.8599 91.117 42.6681C91.7507 41.4754 92.7451 40.9426 94.1006 41.0704C94.4274 41.2683 94.4532 41.4993 94.1776 41.7634C93.3303 41.6991 92.6181 41.9751 92.041 42.5911C91.5509 43.3252 91.5124 44.0825 91.9255 44.8624C92.5195 45.5508 93.2767 45.9099 94.1968 45.9403C95.4195 45.791 96.3435 45.1881 96.9687 44.131C97.6451 42.8786 97.6578 41.6213 97.0072 40.3582C96.2503 39.2772 95.2047 38.7509 93.8696 38.7798C92.9857 38.7763 92.1646 39.0008 91.4058 39.4535C90.4418 40.0968 89.6141 40.886 88.9227 41.8211C88.4076 42.4274 87.7982 42.9087 87.094 43.2648C85.9996 43.6678 84.9474 43.5778 83.9373 42.9953C82.8766 42.1018 82.7161 41.0685 83.456 39.8962C84.278 39.0381 85.1826 38.9419 86.1701 39.6075C86.4149 39.8008 86.6009 40.0383 86.7283 40.3197C86.7506 40.7289 86.5647 40.8764 86.1701 40.7624C85.9757 40.4525 85.7189 40.2088 85.4002 40.031C84.5174 39.8154 83.9719 40.1553 83.764 41.0512C83.7467 41.6259 83.9711 42.0814 84.4377 42.4178C85.5441 42.9433 86.5836 42.8409 87.556 42.1098C88.1177 41.5998 88.6243 41.0415 89.0767 40.4352C89.7662 39.6807 90.5554 39.0585 91.4443 38.5681C92.1307 38.2374 92.849 38.0514 93.6001 38.0099Z" fill="black"/>
<path opacity="0.988" fill-rule="evenodd" clip-rule="evenodd" d="M102.608 38.0099C104.012 37.971 105.27 38.3752 106.381 39.2226C106.662 39.4393 106.931 39.6703 107.189 39.9155C107.804 40.62 108.433 41.313 109.076 41.9944C110.11 42.866 111.227 42.9814 112.425 42.3409C113.097 41.7388 113.181 41.065 112.675 40.3197C112.136 39.8285 111.577 39.8093 111.001 40.262C110.889 40.3859 110.793 40.5207 110.712 40.6662C110.464 40.886 110.246 40.8602 110.058 40.5892C110.007 40.3698 110.058 40.1773 110.211 40.0118C110.788 39.2934 111.526 39.0432 112.425 39.2611C113.274 39.6352 113.723 40.2897 113.773 41.2244C113.657 42.367 113.041 43.0858 111.925 43.3803C110.737 43.7021 109.671 43.4711 108.729 42.6873C108.091 42.1002 107.507 41.465 106.978 40.7817C106.353 40.1307 105.64 39.5979 104.841 39.1841C103.675 38.6951 102.494 38.6566 101.299 39.0686C99.99 39.6768 99.3102 40.7097 99.259 42.1676C99.3386 43.6555 100.006 44.7912 101.261 45.5746C102.364 46.0982 103.416 46.0081 104.418 45.3052C105.18 44.6126 105.34 43.7976 104.899 42.8606C104.385 42.0614 103.647 41.7083 102.685 41.8019C102.443 41.7083 102.36 41.5351 102.435 41.2822C102.484 41.1694 102.567 41.0989 102.685 41.0704C104.048 40.9596 105.043 41.5047 105.669 42.7066C106.231 44.5267 105.622 45.7779 103.84 46.4601C102.162 46.9617 100.757 46.5444 99.6247 45.2089C98.3647 43.5924 98.1849 41.86 99.0857 40.0118C99.9123 38.7417 101.086 38.0746 102.608 38.0099Z" fill="black"/>
<path opacity="0.989" fill-rule="evenodd" clip-rule="evenodd" d="M98.7586 50.2519C98.5019 50.2519 98.2455 50.2519 97.9887 50.2519C97.1991 49.9952 96.6667 49.4689 96.391 48.6735C96.2883 48.2489 96.3268 47.8381 96.5065 47.4416C97.1344 46.6613 97.6349 45.8016 98.0079 44.8623C98.1204 44.6498 98.2936 44.5789 98.5277 44.6505C98.5966 44.6806 98.6543 44.7256 98.7009 44.7853C99.0747 45.7258 99.5752 46.5858 100.202 47.3646C100.511 48.0245 100.473 48.6662 100.087 49.2895C99.76 49.7765 99.3172 50.0972 98.7586 50.2519ZM98.3737 45.9017C98.7059 46.5874 99.1101 47.2287 99.5863 47.8266C99.7145 48.0834 99.7145 48.3398 99.5863 48.5965C99.2922 49.2922 98.7725 49.5809 98.0272 49.4627C97.37 49.1655 97.0686 48.6585 97.1225 47.9421C97.3643 47.5594 97.6207 47.1871 97.8924 46.8257C98.063 46.5227 98.2235 46.2147 98.3737 45.9017Z" fill="black"/>
<path opacity="0.988" fill-rule="evenodd" clip-rule="evenodd" d="M8.93151 10C10.1832 10.065 10.9018 10.713 11.0874 11.9441C11.0319 12.7616 10.6469 13.3648 9.93245 13.7535C9.56672 13.7984 9.4063 13.638 9.45123 13.2723C9.47844 13.2114 9.51051 13.1537 9.54747 13.099C10.1418 12.7765 10.3792 12.2825 10.2597 11.6169C10.0123 11.0916 9.59521 10.8093 9.00851 10.7699C8.19278 10.8991 7.71156 11.3739 7.56485 12.1944C7.35558 13.1834 7.59942 14.0432 8.2963 14.7737C9.01363 15.4011 9.7194 16.0427 10.4137 16.6986C11.0684 17.3797 11.5689 18.1625 11.9151 19.0469C12.2537 20.1394 12.2922 21.243 12.0306 22.3577C11.4525 24.0901 10.2527 25.0591 8.43104 25.2643C6.51914 25.3382 5.04981 24.5748 4.02308 22.9737C3.31887 21.5319 3.43436 20.1588 4.36956 18.8544C5.33538 17.8411 6.45824 17.6293 7.73809 18.2192C8.84354 18.9097 9.31194 19.9042 9.14325 21.2028C8.87538 21.4776 8.6444 21.4519 8.45029 21.1258C8.52113 20.2481 8.21954 19.5359 7.5456 18.9892C6.08166 18.3222 5.06147 18.7392 4.48505 20.2403C4.14877 21.3309 4.35408 22.3061 5.10101 23.1661C6.27164 24.4004 7.6768 24.7792 9.31649 24.3018C10.452 23.8329 11.1386 22.9925 11.3761 21.7802C11.6243 20.3608 11.3164 19.0775 10.4522 17.9305C10.1135 17.5276 9.76063 17.1362 9.39348 16.7563C8.73579 16.2527 8.12622 15.6945 7.56485 15.0817C6.71094 14.0326 6.50563 12.8648 6.94889 11.5784C7.31 10.6716 7.97088 10.1454 8.93151 10Z" fill="black"/>
<path opacity="0.987" fill-rule="evenodd" clip-rule="evenodd" d="M0 25.8608C0 25.5528 0 25.2448 0 24.9368C0.264119 24.1661 0.79025 23.6591 1.5784 23.4162C2.05509 23.2937 2.50423 23.358 2.92581 23.6087C3.67897 24.2231 4.51306 24.7108 5.42815 25.0716C5.69112 25.3164 5.6783 25.5474 5.38965 25.7645C4.44904 26.1383 3.58927 26.6388 2.81032 27.2659C1.68071 27.6251 0.801684 27.2979 0.173239 26.2842C0.113219 26.1391 0.0554725 25.9982 0 25.8608ZM1.80938 24.1284C2.03659 24.1076 2.25474 24.1399 2.46384 24.2246C3.03421 24.6831 3.65017 25.0746 4.31172 25.3988C4.01656 25.5593 3.72143 25.7195 3.42628 25.88C3.06473 26.1518 2.69258 26.4082 2.30985 26.65C1.60471 26.7173 1.09783 26.4286 0.789199 25.7838C0.636622 25.1328 0.848358 24.6389 1.42441 24.3016C1.55204 24.2312 1.68036 24.1734 1.80938 24.1284Z" fill="black"/>
<path opacity="0.988" fill-rule="evenodd" clip-rule="evenodd" d="M7.50655 25.5529C9.26123 25.3943 10.6279 26.036 11.6065 27.4777C12.2019 28.6219 12.3687 29.828 12.107 31.0965C11.8413 32.1413 11.3536 33.0653 10.6441 33.8683C10.1063 34.4577 9.52243 34.9901 8.89246 35.466C8.50964 35.8101 8.16955 36.1886 7.87228 36.6017C7.38078 37.4532 7.34228 38.3256 7.75678 39.2195C8.22237 39.9948 8.8704 40.2066 9.70091 39.8547C10.356 39.3966 10.4779 38.8257 10.0666 38.1416C9.8969 37.946 9.70441 37.7793 9.48917 37.6411C9.3736 37.2176 9.53398 37.0317 9.97039 37.0829C10.8631 37.6172 11.2032 38.3937 10.9906 39.412C10.5554 40.411 9.7918 40.8664 8.69997 40.7786C7.92687 40.6089 7.36865 40.1661 7.02533 39.4505C6.50527 38.1527 6.65926 36.9466 7.4873 35.8317C7.99836 35.2308 8.56943 34.698 9.20044 34.2341C10.0082 33.5346 10.6434 32.7069 11.1061 31.751C11.6229 30.4625 11.5844 29.192 10.9906 27.9397C10.3206 26.8602 9.34538 26.3082 8.06476 26.2843C6.6499 26.3502 5.5463 26.9661 4.75398 28.1322C4.07696 29.4115 4.2117 30.5984 5.1582 31.6932C5.95564 32.3092 6.77691 32.3346 7.62204 31.7702C7.95947 31.4996 8.19685 31.1593 8.33425 30.75C8.40166 30.3658 8.45297 29.9809 8.48824 29.5951C8.61897 29.4527 8.77939 29.4076 8.96946 29.4604C9.16237 29.6086 9.23936 29.8072 9.20044 30.0571C9.14689 31.4253 8.47961 32.3427 7.19857 32.8097C5.79788 33.1388 4.7392 32.6834 4.02253 31.443C3.16857 29.5655 3.52146 27.9551 5.08121 26.6116C5.79811 26.0456 6.60656 25.6926 7.50655 25.5529Z" fill="black"/>
<path opacity="0.988" fill-rule="evenodd" clip-rule="evenodd" d="M189.74 24.5105C189.906 24.4208 190.035 24.2923 190.125 24.1256C191.043 22.9899 191.139 21.7836 190.413 20.5068C189.757 19.6193 188.917 19.3947 187.892 19.8331C187.087 20.3094 186.728 21.0152 186.814 21.9505C186.724 22.3267 186.507 22.4293 186.159 22.2584C185.901 21.1454 186.209 20.2086 187.083 19.4481C188.095 18.7326 189.147 18.6685 190.24 19.2556C191.176 19.998 191.651 20.9732 191.664 22.1814C191.626 23.2842 191.203 24.208 190.394 24.9533C188.881 26.2745 187.188 26.5698 185.312 25.8387C183.749 24.9837 182.979 23.6555 183.002 21.8542C183.003 20.7998 183.279 19.8245 183.83 18.9284C184.512 17.9258 185.34 17.0596 186.313 16.3298C186.82 15.9141 187.224 15.42 187.526 14.8477C187.844 14.0047 187.792 13.1834 187.372 12.3838C186.639 11.5422 185.882 11.5166 185.101 12.3068C184.861 12.7497 184.874 13.186 185.139 13.6157C185.322 13.8241 185.527 14.0038 185.755 14.1547C185.865 14.4811 185.75 14.6736 185.409 14.7322C184.716 14.4494 184.305 13.9361 184.177 13.1923C184.131 12.0309 184.676 11.3059 185.813 11.0172C186.838 10.9104 187.614 11.3018 188.142 12.1913C188.775 13.6387 188.582 14.9604 187.564 16.1566C187.091 16.682 186.571 17.1504 186.005 17.5617C185.243 18.2229 184.633 18.9992 184.177 19.8908C183.686 21.0696 183.647 22.2631 184.061 23.4711C184.679 24.7716 185.712 25.4391 187.16 25.473C188.141 25.463 189 25.1419 189.74 24.5105Z" fill="black"/>
<path opacity="0.989" fill-rule="evenodd" clip-rule="evenodd" d="M195.244 26.0121C195.244 26.2558 195.244 26.4999 195.244 26.7436C195.047 27.4496 194.611 27.9566 193.935 28.2642C193.415 28.5071 192.902 28.4944 192.395 28.2257C191.617 27.5986 190.756 27.0981 189.816 26.7243C189.634 26.5992 189.577 26.426 189.643 26.2046C189.661 26.1495 189.693 26.1045 189.739 26.0699C190.705 25.6833 191.591 25.1702 192.395 24.53C192.902 24.2612 193.415 24.2485 193.935 24.4915C194.611 24.799 195.047 25.3061 195.244 26.0121ZM192.973 25.0882C193.679 25.0851 194.174 25.4062 194.455 26.0506C194.582 26.6373 194.396 27.0927 193.897 27.4173C193.501 27.7095 193.09 27.7353 192.665 27.4943C192.125 27.0446 191.535 26.6723 190.894 26.3778C191.227 26.1996 191.56 26.0198 191.895 25.8389C192.251 25.5779 192.611 25.3276 192.973 25.0882Z" fill="black"/>
<path opacity="0.988" fill-rule="evenodd" clip-rule="evenodd" d="M186.659 26.5126C188.457 26.4014 189.901 27.0558 190.99 28.476C191.918 29.9762 191.88 31.4518 190.875 32.9032C189.835 33.9896 188.648 34.1759 187.314 33.4614C186.358 32.7619 185.941 31.8187 186.063 30.6318C186.175 30.4193 186.348 30.3485 186.582 30.4201C186.705 30.5044 186.782 30.6199 186.813 30.7666C186.724 31.8826 187.199 32.6399 188.238 33.0379C189.184 33.2785 189.922 32.9898 190.451 32.1717C191.254 30.5622 190.952 29.1955 189.547 28.0718C188.548 27.3384 187.444 27.1074 186.236 27.3788C184.879 27.788 184.077 28.6927 183.83 30.0929C183.637 31.3102 183.868 32.4393 184.523 33.4807C184.908 34.0458 185.35 34.5655 185.851 35.0398C186.561 35.583 187.209 36.1928 187.795 36.8684C188.642 38.0815 188.732 39.3519 188.064 40.6797C187.179 41.8747 186.107 42.0737 184.85 41.2764C184.185 40.6758 183.999 39.9505 184.292 39.1013C184.484 38.6393 184.799 38.2863 185.235 38.0426C185.721 37.9833 185.882 38.1824 185.716 38.6393C184.941 39.0774 184.749 39.6934 185.139 40.4872C185.74 41.0851 186.387 41.1428 187.083 40.6604C187.454 40.2836 187.666 39.8281 187.718 39.2938C187.801 38.6882 187.686 38.1235 187.371 37.5999C187.217 37.3947 187.063 37.1891 186.91 36.9839C186.408 36.5058 185.888 36.05 185.35 35.6173C184.364 34.7415 183.652 33.6828 183.214 32.4412C182.825 31.0361 182.966 29.6887 183.637 28.399C184.352 27.3068 185.359 26.6782 186.659 26.5126Z" fill="black"/>
<line x1="18" y1="8.5" x2="79" y2="8.5" stroke="black"/>
<line x1="18" y1="43.5" x2="79" y2="43.5" stroke="black"/>
<line x1="117" y1="8.5" x2="178" y2="8.5" stroke="black"/>
<line x1="117" y1="43.5" x2="178" y2="43.5" stroke="black"/>
</svg>
