<svg width="4949" height="1313" viewBox="0 0 4949 1313" fill="none" xmlns="http://www.w3.org/2000/svg">
<path d="M2466.11 102.349C2457.58 79.8825 2434.88 56.0884 2404.78 56.9309C2386.15 57.4671 2362.84 67.6025 2355.74 88.6393C2349.45 107.327 2359.19 123.539 2360.31 125.326C2364.93 132.36 2371.4 137.987 2379.01 141.589C2386.62 145.192 2395.08 146.632 2403.45 145.75C2404.95 145.589 2406.33 144.846 2407.28 143.68C2408.24 142.515 2408.7 141.021 2408.56 139.521C2408.49 138.778 2408.27 138.055 2407.92 137.396C2407.57 136.737 2407.1 136.153 2406.52 135.679C2405.94 135.204 2405.28 134.848 2404.56 134.631C2403.85 134.414 2403.09 134.341 2402.35 134.415C2396.06 135.086 2389.7 134.012 2383.98 131.309C2378.26 128.607 2373.39 124.381 2369.92 119.097C2369.59 118.586 2361.84 106.076 2366.52 92.2135C2372.22 75.3126 2392.67 68.6492 2405.01 68.2918C2428.44 67.7557 2447.79 86.9288 2455.15 106.332C2460.93 121.65 2462.05 145.801 2446.23 164.106C2434.09 178.173 2414.67 184.53 2391.54 181.977C2364.63 179.067 2346.18 160.66 2337.28 151.826C2334.5 149.044 2331.46 145.418 2328.24 141.614C2312.78 123.105 2289.26 94.9197 2247.58 113.046C2242.24 115.369 2227.72 127.088 2228.24 144.295C2228.64 158.056 2238.82 173.552 2255.12 175.646C2261.47 176.284 2267.86 175.025 2273.49 172.03C2279.11 169.035 2283.72 164.438 2286.73 158.822C2287.38 157.499 2287.5 155.978 2287.06 154.573C2286.61 153.168 2285.65 151.986 2284.36 151.272C2283.07 150.557 2281.56 150.365 2280.13 150.734C2278.7 151.104 2277.47 152.006 2276.69 153.256C2274.81 156.881 2271.89 159.864 2268.3 161.824C2264.71 163.784 2260.62 164.632 2256.55 164.259C2246.48 162.957 2239.94 152.72 2239.69 143.835C2239.33 131.964 2250.55 124.126 2252.16 123.411C2285.94 108.732 2303.81 130.1 2319.57 148.941C2322.97 152.975 2326.17 156.805 2329.34 159.945C2338.33 169.11 2359.57 190.198 2390.47 193.466C2394.11 193.869 2397.77 194.074 2401.43 194.079C2423.67 194.079 2442.32 186.42 2455.1 171.638C2470.84 153.486 2475.16 126.271 2466.11 102.349Z" fill="black"/>
<path d="M2698.68 113.047C2656.99 94.9461 2633.43 123.106 2617.84 141.717C2614.62 145.572 2611.58 149.198 2608.8 151.929C2599.9 160.763 2581.45 179.17 2554.54 182.08C2531.54 184.633 2511.99 178.225 2499.85 164.209C2484.03 145.904 2485.15 121.625 2490.93 106.435C2498.29 87.0318 2517.81 67.8076 2541.07 68.3948C2553.41 68.7523 2573.86 75.4156 2579.56 92.3165C2584.24 106.179 2576.49 118.689 2576.16 119.2C2572.69 124.484 2567.82 128.71 2562.1 131.412C2556.38 134.115 2550.02 135.189 2543.73 134.518C2542.23 134.375 2540.73 134.833 2539.57 135.79C2538.4 136.747 2537.67 138.125 2537.52 139.624C2537.38 141.124 2537.84 142.618 2538.8 143.783C2539.75 144.949 2541.13 145.692 2542.63 145.853C2551 146.735 2559.46 145.295 2567.07 141.693C2574.68 138.09 2581.15 132.463 2585.77 125.429C2586.89 123.642 2596.63 107.43 2590.34 88.7423C2583.24 67.7055 2559.93 57.5701 2541.3 57.0339C2511.53 56.0893 2488.63 80.011 2479.97 102.452C2470.87 126.374 2475.19 153.512 2490.93 171.817C2503.58 186.472 2522.36 194.258 2544.6 194.258C2548.26 194.254 2551.92 194.049 2555.56 193.646C2586.46 190.301 2607.62 169.213 2616.67 160.201C2619.84 157.061 2623.03 153.231 2626.43 149.198C2642.2 130.356 2660.06 108.988 2693.85 123.668C2695.46 124.357 2706.62 132.22 2706.32 144.092C2706.06 152.848 2699.52 163.086 2689.45 164.516C2685.38 164.879 2681.3 164.028 2677.72 162.068C2674.14 160.109 2671.22 157.131 2669.34 153.512C2668.56 152.262 2667.33 151.36 2665.9 150.99C2664.47 150.621 2662.96 150.814 2661.67 151.528C2660.38 152.242 2659.41 153.424 2658.97 154.829C2658.53 156.234 2658.65 157.755 2659.29 159.078C2662.37 164.687 2667.05 169.254 2672.73 172.196C2678.42 175.138 2684.85 176.321 2691.21 175.596C2707.52 173.502 2717.69 158.006 2718.1 144.245C2718.61 127.089 2704.09 115.37 2698.68 113.047Z" fill="black"/>
<path d="M2489.11 4.23718C2484.33 1.4618 2478.89 0 2473.36 0C2467.82 0 2462.39 1.4618 2457.6 4.23718C2446.46 11.6664 2439.84 24.2273 2441.14 35.5116C2441.94 42.3281 2445.1 46.4384 2448.81 51.187C2450.62 53.5358 2452.69 56.2931 2454.97 59.7907C2458.8 66.2814 2462.22 73.0094 2465.19 79.934C2468.26 86.6739 2468.9 88.0781 2471.86 88.8184C2472.32 88.9429 2472.79 89.0031 2473.27 88.9971C2473.76 88.9911 2474.25 88.9311 2474.72 88.8184C2477.69 88.0781 2478.33 86.6739 2481.39 79.9084C2484.38 72.9948 2487.79 66.2755 2491.62 59.7907C2493.89 56.2165 2495.96 53.5358 2497.78 51.187C2501.46 46.4384 2504.63 42.3281 2505.44 35.5116C2506.8 24.2273 2500.18 11.6664 2489.11 4.23718ZM2494.22 34.184C2493.81 37.7072 2492.38 39.673 2488.91 44.1663C2487.04 46.5916 2484.69 49.6297 2482.16 53.6379C2478.91 58.9436 2476 64.4429 2473.42 70.1049C2470.86 64.4433 2467.95 58.944 2464.71 53.6379C2462.15 49.6297 2459.82 46.5916 2457.96 44.1663C2454.48 39.673 2453.05 37.7072 2452.64 34.184C2451.83 27.1887 2456.53 18.8659 2464.04 13.7599C2466.47 12.1697 2469.32 11.3509 2472.22 11.4111H2473.7C2476.91 11.1782 2480.12 11.9935 2482.83 13.7344C2490.19 18.8149 2494.89 27.1887 2494.07 34.184H2494.22Z" fill="black"/>
<path d="M2691.21 1136.91C2684.87 1136.27 2678.48 1137.53 2672.85 1140.53C2667.23 1143.52 2662.61 1148.12 2659.6 1153.73C2658.95 1155.05 2658.84 1156.57 2659.28 1157.98C2659.72 1159.38 2660.69 1160.56 2661.98 1161.28C2663.27 1161.99 2664.78 1162.19 2666.21 1161.82C2667.63 1161.45 2668.86 1160.54 2669.64 1159.29C2671.53 1155.68 2674.45 1152.71 2678.03 1150.75C2681.61 1148.79 2685.69 1147.93 2689.76 1148.29C2699.83 1149.59 2706.37 1159.83 2706.62 1168.72C2706.98 1180.56 2695.76 1188.4 2694.15 1189.14C2660.37 1203.82 2642.5 1182.45 2626.74 1163.61C2623.34 1159.58 2620.14 1155.75 2616.97 1152.61C2607.93 1143.59 2586.77 1122.51 2555.84 1119.16C2528.85 1116.25 2505.91 1124.01 2491.24 1140.99C2475.49 1159.22 2471.17 1186.43 2480.27 1210.36C2488.65 1232.44 2510.94 1255.8 2539.92 1255.8H2541.48C2560.11 1255.26 2583.42 1245.1 2590.52 1224.09C2596.81 1205.4 2587.07 1189.19 2585.95 1187.4C2581.33 1180.36 2574.87 1174.73 2567.25 1171.13C2559.64 1167.52 2551.18 1166.09 2542.81 1166.98C2542.06 1167.04 2541.33 1167.26 2540.66 1167.6C2539.99 1167.95 2539.4 1168.43 2538.92 1169C2538.43 1169.58 2538.07 1170.24 2537.84 1170.96C2537.61 1171.68 2537.53 1172.43 2537.6 1173.18C2537.66 1173.93 2537.87 1174.66 2538.22 1175.33C2538.57 1176 2539.04 1176.59 2539.62 1177.07C2540.2 1177.56 2540.86 1177.92 2541.58 1178.15C2542.3 1178.37 2543.06 1178.46 2543.81 1178.39C2550.1 1177.71 2556.46 1178.79 2562.18 1181.49C2567.9 1184.19 2572.77 1188.42 2576.24 1193.71C2576.57 1194.22 2584.31 1206.73 2579.64 1220.59C2573.94 1237.49 2553.49 1244.16 2541.15 1244.51C2518.15 1245.1 2498.37 1225.88 2491.01 1206.47C2485.23 1191.28 2484.11 1167 2499.93 1148.7C2512.06 1134.63 2531.51 1128.28 2554.62 1130.83C2581.53 1133.74 2599.98 1152.15 2608.87 1160.98C2611.66 1163.76 2614.7 1167.39 2617.92 1171.19C2633.51 1189.8 2657.07 1217.96 2698.75 1199.86C2704.09 1197.54 2718.61 1185.82 2718.1 1168.61C2717.69 1154.5 2707.52 1139 2691.21 1136.91Z" fill="black"/>
<path d="M2455.1 1140.84C2440.43 1123.86 2417.48 1116.1 2390.47 1119.01C2359.57 1122.35 2338.41 1143.44 2329.36 1152.45C2326.19 1155.59 2323 1159.42 2319.6 1163.46C2303.83 1182.3 2285.94 1203.67 2252.18 1188.99C2250.57 1188.3 2239.4 1180.46 2239.71 1168.56C2239.97 1159.78 2246.51 1149.54 2256.58 1148.14C2260.64 1147.78 2264.73 1148.63 2268.31 1150.59C2271.89 1152.55 2274.8 1155.53 2276.69 1159.14C2277.47 1160.39 2278.7 1161.29 2280.13 1161.66C2281.55 1162.03 2283.07 1161.84 2284.36 1161.13C2285.65 1160.41 2286.61 1159.23 2287.06 1157.83C2287.5 1156.42 2287.38 1154.9 2286.73 1153.58C2283.72 1147.96 2279.11 1143.37 2273.48 1140.38C2267.85 1137.38 2261.46 1136.12 2255.12 1136.75C2238.82 1138.85 2228.64 1154.34 2228.24 1168.1C2227.7 1185.31 2242.24 1197.03 2247.58 1199.35C2289.24 1217.45 2312.83 1189.29 2328.42 1170.68C2331.64 1166.83 2334.68 1163.2 2337.46 1160.47C2346.36 1151.64 2364.81 1133.23 2391.72 1130.32C2414.85 1127.77 2434.27 1134.17 2446.41 1148.19C2462.23 1166.49 2461.1 1190.77 2455.33 1205.96C2447.97 1225.37 2428.21 1244.67 2405.19 1244C2392.84 1243.65 2372.4 1236.98 2366.7 1220.08C2362.02 1206.22 2369.77 1193.71 2370.1 1193.2C2373.57 1187.91 2378.43 1183.69 2384.16 1180.98C2389.88 1178.28 2396.24 1177.21 2402.53 1177.88C2403.27 1177.96 2404.03 1177.89 2404.74 1177.67C2405.46 1177.46 2406.13 1177.1 2406.7 1176.63C2407.28 1176.15 2407.76 1175.57 2408.11 1174.9C2408.46 1174.24 2408.67 1173.52 2408.74 1172.78C2408.88 1171.28 2408.42 1169.79 2407.46 1168.63C2406.5 1167.46 2405.13 1166.73 2403.63 1166.57C2395.25 1165.68 2386.79 1167.11 2379.18 1170.71C2371.57 1174.32 2365.1 1179.95 2360.49 1187C2359.36 1188.78 2349.63 1204.99 2355.91 1223.68C2363.02 1244.69 2386.33 1254.85 2404.96 1255.39H2406.52C2435.62 1255.39 2457.78 1232.03 2466.16 1209.95C2475.16 1186.28 2470.84 1159.07 2455.1 1140.84Z" fill="black"/>
<path d="M2505.27 1277.04C2504.47 1270.22 2501.3 1266.11 2497.6 1261.36C2495.78 1259.02 2493.71 1256.26 2491.44 1252.76C2487.61 1246.27 2484.19 1239.54 2481.22 1232.62C2478.15 1225.88 2477.51 1224.47 2474.55 1223.73C2474.07 1223.62 2473.58 1223.56 2473.09 1223.55C2472.61 1223.53 2472.12 1223.6 2471.66 1223.73C2468.69 1224.47 2468.06 1225.88 2464.99 1232.62C2462.01 1239.54 2458.6 1246.27 2454.77 1252.76C2452.49 1256.34 2450.42 1259.02 2448.61 1261.36C2444.93 1266.11 2441.76 1270.22 2440.94 1277.04C2439.64 1288.32 2446.26 1300.89 2457.4 1308.31C2462.06 1311.38 2467.59 1312.86 2473.17 1312.55H2474.39C2479.55 1312.63 2484.61 1311.14 2488.91 1308.29C2499.95 1300.88 2506.57 1288.32 2505.27 1277.04ZM2482.44 1298.74C2479.74 1300.5 2476.54 1301.33 2473.32 1301.09H2472.78C2469.57 1301.33 2466.36 1300.5 2463.66 1298.74C2456.15 1293.63 2451.44 1285.36 2452.26 1278.32C2452.67 1274.79 2454.1 1272.83 2457.58 1268.33C2459.44 1265.78 2461.77 1262.87 2464.32 1258.89C2467.57 1253.57 2470.48 1248.06 2473.06 1242.4C2475.64 1248.06 2478.55 1253.57 2481.78 1258.89C2484.33 1262.87 2486.66 1265.91 2488.53 1268.33C2492 1272.83 2493.43 1274.79 2493.84 1278.32C2494.66 1285.36 2489.96 1293.81 2482.44 1298.74Z" fill="black"/>
<path d="M149.249 805.192C153.312 801.797 157.12 798.605 160.289 795.44C169.285 786.428 190.395 765.263 193.743 734.397C196.707 707.437 189.04 684.511 171.892 669.832C153.67 654.105 126.402 649.816 102.455 658.879C79.9657 667.406 56.1472 690.179 56.9905 720.024C57.5272 738.661 67.6986 761.919 88.7571 769.016C107.413 775.322 123.693 765.595 125.482 764.446C132.506 759.821 138.126 753.36 141.731 745.767C145.336 738.173 146.787 729.737 145.927 721.377C145.74 719.907 144.991 718.566 143.838 717.634C142.684 716.702 141.214 716.252 139.736 716.377C138.258 716.502 136.885 717.193 135.905 718.306C134.925 719.418 134.414 720.866 134.477 722.347C135.158 728.634 134.087 734.987 131.381 740.704C128.675 746.422 124.44 751.281 119.144 754.745C118.607 755.077 106.11 762.838 92.2072 758.14C75.4933 752.575 68.9253 732.151 68.4909 719.717C67.8008 696.536 87.1214 676.954 106.544 669.602C121.878 663.832 146.054 662.709 164.404 678.512C178.46 690.639 184.849 710.067 182.293 733.146C179.38 760.029 160.979 778.462 152.111 787.347C149.326 790.129 145.697 793.168 141.889 796.384C123.233 811.958 95.0439 835.522 113.163 877.136C115.438 882.395 126.81 896.488 143.55 896.488H144.444C158.219 896.079 173.732 885.918 175.828 869.656C176.475 863.319 175.222 856.934 172.228 851.31C169.234 845.687 164.633 841.08 159.011 838.075C158.351 837.647 157.61 837.36 156.834 837.23C156.058 837.1 155.263 837.13 154.499 837.319C153.735 837.508 153.019 837.852 152.393 838.329C151.768 838.806 151.247 839.407 150.863 840.093C150.479 840.779 150.241 841.537 150.162 842.319C150.083 843.102 150.166 843.892 150.405 844.641C150.644 845.39 151.035 846.082 151.552 846.674C152.07 847.266 152.704 847.745 153.415 848.083C157.037 849.964 160.018 852.879 161.98 856.456C163.941 860.034 164.793 864.112 164.429 868.175C163.152 878.387 152.878 884.77 143.984 885.025C131.947 885.357 124.255 874.2 123.539 872.592C108.998 838.815 130.388 820.944 149.249 805.192Z" fill="black"/>
<path d="M193.742 569.166C190.394 538.301 169.285 517.162 160.289 508.124C157.12 504.984 153.312 501.767 149.249 498.397C130.388 482.619 108.997 464.774 123.692 431.023C124.382 429.415 132.075 418.258 144.137 418.564C152.903 418.845 163.177 425.355 164.583 435.414C164.968 439.479 164.124 443.567 162.16 447.148C160.197 450.73 157.204 453.641 153.568 455.506C152.892 455.864 152.294 456.354 151.809 456.945C151.325 457.537 150.963 458.22 150.746 458.953C150.529 459.686 150.461 460.455 150.545 461.215C150.629 461.975 150.865 462.71 151.237 463.378C151.61 464.046 152.112 464.633 152.715 465.104C153.317 465.576 154.008 465.922 154.746 466.124C155.484 466.325 156.256 466.377 157.014 466.277C157.773 466.176 158.504 465.926 159.165 465.54C164.782 462.53 169.378 457.922 172.372 452.3C175.366 446.678 176.621 440.295 175.981 433.959C173.885 417.671 158.372 407.51 144.597 407.101C127.5 406.744 115.642 421.092 113.316 426.453C95.197 468.067 123.386 491.606 142.042 507.205C145.875 510.396 149.504 513.434 152.264 516.242C161.107 525.101 179.507 543.56 182.421 570.417C184.977 593.394 178.562 612.925 164.531 625.052C146.182 640.881 121.878 639.732 106.672 633.962C87.249 626.609 67.9284 607.053 68.6184 583.872C68.9507 571.541 75.6209 551.142 92.5392 545.423C106.442 540.751 118.939 548.487 119.476 548.819C124.77 552.285 129.003 557.144 131.709 562.861C134.414 568.578 135.487 574.93 134.809 581.217C134.714 581.983 134.774 582.761 134.987 583.503C135.199 584.245 135.559 584.938 136.045 585.538C136.531 586.138 137.133 586.635 137.816 586.997C138.498 587.36 139.247 587.581 140.017 587.648C140.787 587.715 141.563 587.626 142.298 587.387C143.032 587.148 143.712 586.763 144.294 586.255C144.877 585.748 145.351 585.128 145.689 584.434C146.026 583.739 146.22 582.984 146.259 582.212C147.124 573.848 145.675 565.407 142.07 557.808C138.465 550.209 132.842 543.745 125.814 539.117C124.025 537.994 107.771 528.267 89.0891 534.548C68.0306 541.645 57.8592 564.928 57.3225 583.54C56.4792 613.41 80.3232 636.183 102.787 644.812C110.996 647.909 119.697 649.5 128.471 649.51C144.457 649.674 159.975 644.123 172.224 633.86C189.04 619.078 196.707 596.152 193.742 569.166Z" fill="black"/>
<path d="M88.9373 650.225C88.1961 647.289 86.7905 646.625 80.0181 643.561C73.0889 640.584 66.3543 637.173 59.8541 633.349C56.8796 631.447 54.005 629.394 51.2416 627.197C46.4882 623.546 42.3736 620.38 35.55 619.538C24.2541 618.261 11.6804 624.822 4.26907 635.953C1.47335 640.733 0 646.17 0 651.706C0 657.241 1.47335 662.678 4.26907 667.458C11.0671 677.67 22.1585 684.027 32.6877 684.027C33.6439 684.027 34.5994 683.976 35.55 683.873C42.3736 683.082 46.4882 679.916 51.2416 676.214C54.006 674.027 56.8806 671.982 59.8541 670.087C66.346 666.249 73.0816 662.838 80.0181 659.875C86.765 656.786 88.1706 656.148 88.9373 653.212C89.1753 652.256 89.1753 651.257 88.9373 650.301V650.225ZM53.6951 660.437C49.6827 662.99 46.6671 665.313 44.2136 667.202C39.7157 670.674 37.7479 672.104 34.2211 672.487C27.1931 673.279 18.8873 668.632 13.776 661.101C12.0088 658.415 11.1903 655.216 11.4504 652.012V651.45C11.1924 648.239 12.0105 645.032 13.776 642.336C18.4017 635.392 25.9409 630.873 32.5855 630.873C33.1222 630.873 33.6589 630.873 34.17 630.873C37.6968 631.281 39.6646 632.711 44.1881 636.183C46.6159 638.072 49.6316 640.396 53.6439 642.949C58.9668 646.18 64.4799 649.087 70.1533 651.654C64.4619 654.229 58.9316 657.144 53.5928 660.386L53.6951 660.437Z" fill="black"/>
<path d="M4859.44 537C4840.73 530.719 4824.5 540.446 4822.69 541.57C4815.66 546.197 4810.04 552.662 4806.43 560.26C4802.83 567.859 4801.38 576.3 4802.24 584.665C4802.28 585.436 4802.48 586.191 4802.81 586.886C4803.15 587.581 4803.63 588.2 4804.21 588.708C4804.79 589.215 4805.47 589.6 4806.2 589.839C4806.94 590.078 4807.72 590.167 4808.49 590.1C4809.26 590.033 4810 589.812 4810.69 589.449C4811.37 589.087 4811.97 588.59 4812.46 587.99C4812.94 587.39 4813.3 586.698 4813.52 585.955C4813.73 585.213 4813.79 584.435 4813.69 583.669C4813.01 577.382 4814.09 571.03 4816.79 565.313C4819.5 559.597 4823.73 554.737 4829.03 551.271C4829.54 550.939 4842.04 543.204 4855.94 547.876C4872.86 553.594 4879.53 573.993 4879.88 586.324C4880.55 609.48 4861.23 629.061 4841.8 636.414C4826.47 642.209 4802.29 643.333 4783.95 627.504C4769.89 615.377 4763.5 595.974 4766.06 572.87C4768.97 545.986 4787.37 527.554 4796.24 518.669C4799.02 515.886 4802.65 512.848 4806.46 509.632C4825.12 494.058 4853.31 470.519 4835.19 428.905C4832.86 423.544 4821.21 409.017 4803.9 409.554C4790.13 409.962 4774.62 420.123 4772.52 436.411C4771.88 442.747 4773.14 449.13 4776.13 454.752C4779.12 460.374 4783.72 464.982 4789.34 467.992C4790.67 468.695 4792.22 468.851 4793.66 468.425C4795.1 467.999 4796.32 467.025 4797.05 465.713C4797.79 464.4 4797.97 462.853 4797.58 461.404C4797.18 459.954 4796.23 458.718 4794.93 457.959C4791.3 456.093 4788.31 453.182 4786.34 449.6C4784.38 446.019 4783.53 441.932 4783.92 437.866C4785.2 427.808 4795.47 421.297 4804.36 421.017C4816.27 420.685 4824.09 431.867 4824.81 433.475C4839.5 467.226 4818.11 485.072 4799.25 500.849C4795.19 504.219 4791.38 507.436 4788.21 510.576C4779.22 519.614 4758.11 540.753 4754.76 571.644C4751.82 598.604 4759.59 621.53 4776.61 636.21C4788.86 646.473 4804.38 652.024 4820.36 651.86C4829.09 651.835 4837.75 650.244 4845.92 647.162C4868.41 638.635 4892.23 615.862 4891.38 585.89C4890.64 567.381 4880.47 544.097 4859.44 537Z" fill="black"/>
<path d="M4845.72 661.331C4821.77 652.268 4794.6 656.557 4776.28 672.283C4759.26 686.963 4751.49 709.889 4754.43 736.849C4757.78 767.74 4778.89 788.879 4787.88 797.891C4791.05 801.057 4794.86 804.248 4798.92 807.644C4817.78 823.396 4839.17 841.267 4824.48 875.018C4823.79 876.626 4815.97 887.783 4804.03 887.451C4795.27 887.196 4784.99 880.685 4783.59 870.601C4783.22 866.539 4784.08 862.46 4786.04 858.882C4788 855.305 4790.98 852.39 4794.6 850.509C4795.31 850.171 4795.95 849.692 4796.47 849.1C4796.98 848.508 4797.37 847.816 4797.61 847.067C4797.85 846.318 4797.93 845.528 4797.86 844.745C4797.78 843.963 4797.54 843.206 4797.15 842.519C4796.77 841.833 4796.25 841.233 4795.62 840.755C4795 840.278 4794.28 839.935 4793.52 839.745C4792.75 839.556 4791.96 839.526 4791.18 839.656C4790.41 839.786 4789.67 840.073 4789.01 840.501C4783.38 843.506 4778.78 848.113 4775.79 853.736C4772.79 859.36 4771.54 865.745 4772.19 872.082C4774.29 888.344 4789.8 898.505 4803.57 898.914H4804.47C4821.21 898.914 4832.58 884.796 4834.85 879.562C4852.97 837.948 4824.78 814.384 4806.13 798.81C4802.3 795.594 4798.67 792.556 4795.91 789.773C4787.04 780.914 4768.64 762.456 4765.72 735.572C4763.17 712.595 4769.58 693.065 4783.61 680.938C4801.96 665.135 4826.24 666.258 4841.47 672.028C4860.9 679.381 4880.22 698.962 4879.55 722.143C4879.19 734.449 4872.52 754.873 4855.61 760.566C4841.7 765.264 4829.21 757.503 4828.69 757.196C4823.4 753.724 4819.17 748.86 4816.46 743.139C4813.76 737.419 4812.68 731.064 4813.36 724.773C4813.46 724.005 4813.4 723.225 4813.19 722.48C4812.98 721.735 4812.62 721.04 4812.13 720.438C4811.64 719.835 4811.04 719.338 4810.35 718.975C4809.67 718.612 4808.92 718.391 4808.14 718.326C4807.37 718.26 4806.59 718.352 4805.86 718.594C4805.12 718.837 4804.44 719.225 4803.86 719.737C4803.28 720.249 4802.8 720.873 4802.47 721.571C4802.13 722.27 4801.94 723.029 4801.91 723.803C4801.05 732.167 4802.5 740.608 4806.1 748.207C4809.71 755.806 4815.33 762.271 4822.36 766.898C4824.17 768.021 4840.4 777.748 4859.11 771.442C4880.14 764.345 4890.31 741.087 4890.85 722.45C4892.02 692.631 4868.2 669.858 4845.72 661.331Z" fill="black"/>
<path d="M4943.9 638.609C4936.49 627.478 4923.87 620.738 4912.62 622.168C4905.8 622.959 4901.68 626.125 4896.93 629.827C4894.58 631.639 4891.82 633.707 4888.32 635.98C4881.82 639.808 4875.09 643.219 4868.15 646.192C4861.41 649.255 4859.98 649.894 4859.23 652.855C4859.03 653.806 4859.03 654.789 4859.23 655.74C4859.98 658.701 4861.38 659.34 4868.15 662.429C4875.09 665.401 4881.82 668.811 4888.32 672.641C4891.9 674.913 4894.58 676.981 4896.93 678.794C4901.68 682.47 4905.8 685.636 4912.62 686.453C4913.57 686.555 4914.53 686.606 4915.48 686.606C4925.99 686.606 4937.1 680.223 4943.9 670.011C4946.7 665.236 4948.17 659.804 4948.17 654.272C4948.17 648.74 4946.7 643.308 4943.9 638.533V638.609ZM4936.67 654.642C4936.93 657.846 4936.11 661.044 4934.34 663.731C4929.23 671.262 4920.93 675.909 4913.9 675.117C4910.4 674.709 4908.43 673.279 4903.93 669.807C4901.38 667.943 4898.46 665.62 4894.45 663.067C4889.13 659.826 4883.62 656.919 4877.94 654.361C4883.62 651.795 4889.13 648.879 4894.45 645.63C4898.46 643.077 4901.5 640.754 4903.93 638.89C4908.43 635.418 4910.4 633.988 4913.9 633.58C4920.9 632.763 4929.23 637.46 4934.34 644.966C4936.11 647.663 4936.93 650.869 4936.67 654.08V654.642Z" fill="black"/>
<path d="M766.87 23.4357H195.839C193.805 23.4357 191.855 24.2426 190.417 25.679C188.98 27.1153 188.172 29.0634 188.172 31.0947C188.125 73.3357 171.304 113.833 141.402 143.699C111.5 173.566 70.9591 190.362 28.6747 190.403C26.6413 190.403 24.6912 191.21 23.2534 192.646C21.8156 194.082 21.0078 196.03 21.0078 198.062V557.781C21.0078 559.812 21.8156 561.76 23.2534 563.197C24.6912 564.633 26.6413 565.44 28.6747 565.44C30.7081 565.44 32.6582 564.633 34.096 563.197C35.5339 561.76 36.3416 559.812 36.3416 557.781V205.465C79.9839 203.503 121.314 185.309 152.212 154.457C183.11 123.604 201.343 82.3248 203.327 38.7282H766.87C768.903 38.7282 770.853 37.9213 772.291 36.4849C773.729 35.0486 774.537 33.1005 774.537 31.0692C774.537 29.0379 773.729 27.0898 772.291 25.6534C770.853 24.2171 768.903 23.4102 766.87 23.4102V23.4357Z" fill="black"/>
<path d="M4915.71 192.854C4873.43 192.806 4832.88 176.004 4802.98 146.134C4773.08 116.263 4756.26 75.7637 4756.22 33.5204C4756.22 31.4891 4755.41 29.541 4753.97 28.1046C4752.53 26.6683 4750.58 25.8613 4748.55 25.8613H4194.18C4192.15 25.8613 4190.2 26.6683 4188.76 28.1046C4187.32 29.541 4186.51 31.4891 4186.51 33.5204C4186.51 35.5517 4187.32 37.4998 4188.76 38.9361C4190.2 40.3725 4192.15 41.1794 4194.18 41.1794H4741.09C4743.05 84.7895 4761.28 126.088 4792.18 156.956C4823.08 187.824 4864.42 206.03 4908.07 207.993V560.309C4908.07 562.34 4908.88 564.288 4910.32 565.724C4911.75 567.161 4913.71 567.968 4915.74 567.968C4917.77 567.968 4919.72 567.161 4921.16 565.724C4922.6 564.288 4923.41 562.34 4923.41 560.309V200.513C4923.41 199.505 4923.21 198.507 4922.82 197.576C4922.43 196.645 4921.87 195.8 4921.15 195.088C4920.44 194.376 4919.59 193.813 4918.65 193.429C4917.72 193.046 4916.72 192.85 4915.71 192.854Z" fill="black"/>
<path d="M4199.45 25.7852H2576.52V41.1032H4199.45V25.7852Z" fill="black"/>
<path d="M2369.2 23.2305H729.709V38.5485H2369.2V23.2305Z" fill="black"/>
<path d="M4199.45 1272.67H2578.97V1287.99H4199.45V1272.67Z" fill="black"/>
<path d="M2372.27 1270.48H730.324V1285.8H2372.27V1270.48Z" fill="black"/>
<path d="M4915.71 743.283C4913.68 743.283 4911.73 744.09 4910.29 745.526C4908.85 746.962 4908.05 748.91 4908.05 750.942V1105.81C4864.39 1107.77 4823.05 1125.98 4792.15 1156.85C4761.25 1187.72 4743.03 1229.01 4741.06 1272.62H4194.16C4192.12 1272.62 4190.17 1273.43 4188.73 1274.87C4187.3 1276.3 4186.49 1278.25 4186.49 1280.28C4186.49 1282.31 4187.3 1284.26 4188.73 1285.7C4190.17 1287.14 4192.12 1287.94 4194.16 1287.94H4748.55C4750.58 1287.94 4752.53 1287.14 4753.97 1285.7C4755.41 1284.26 4756.22 1282.31 4756.22 1280.28C4756.26 1238.04 4773.08 1197.54 4802.98 1167.66C4832.88 1137.79 4873.42 1120.98 4915.71 1120.92C4917.75 1120.92 4919.7 1120.12 4921.14 1118.68C4922.57 1117.24 4923.38 1115.3 4923.38 1113.27V750.738C4923.33 748.742 4922.5 746.846 4921.06 745.453C4919.63 744.061 4917.71 743.282 4915.71 743.283Z" fill="black"/>
<path d="M766.87 1270.25H203.327C201.361 1226.64 183.137 1185.34 152.237 1154.47C121.337 1123.6 79.9965 1105.4 36.3416 1103.44V748.567C36.3416 746.536 35.5339 744.588 34.096 743.152C32.6582 741.715 30.7081 740.908 28.6747 740.908C26.6413 740.908 24.6912 741.715 23.2534 743.152C21.8156 744.588 21.0078 746.536 21.0078 748.567V1111.09C21.0078 1113.13 21.8156 1115.07 23.2534 1116.51C24.6912 1117.95 26.6413 1118.75 28.6747 1118.75C70.9659 1118.8 111.511 1135.61 141.413 1165.48C171.315 1195.36 188.131 1235.87 188.172 1278.11C188.172 1280.14 188.98 1282.09 190.417 1283.53C191.855 1284.96 193.805 1285.77 195.839 1285.77H766.87C768.903 1285.77 770.853 1284.96 772.291 1283.53C773.729 1282.09 774.537 1280.14 774.537 1278.11C774.537 1276.08 773.729 1274.13 772.291 1272.7C770.853 1271.26 768.903 1270.45 766.87 1270.45V1270.25Z" fill="black"/>
<path d="M120.781 25.352H28.7782C28.0157 25.335 27.2576 25.4704 26.5482 25.7501C25.8388 26.0299 25.1926 26.4484 24.6474 26.9812C24.1022 27.5139 23.6691 28.1501 23.3734 28.8524C23.0778 29.5547 22.9256 30.3089 22.9258 31.0708V122.979C22.9258 124.503 23.5316 125.964 24.61 127.041C25.6883 128.118 27.1509 128.723 28.676 128.723C54.6007 128.69 79.4555 118.394 97.7967 100.091C116.138 81.7874 126.47 56.9689 126.531 31.0708C126.531 30.3176 126.382 29.5719 126.093 28.8764C125.804 28.1809 125.38 27.5493 124.846 27.0179C124.311 26.4866 123.677 26.0659 122.98 25.78C122.282 25.4941 121.535 25.3486 120.781 25.352ZM34.4261 117.26V36.815H114.929C113.515 57.6714 104.578 77.308 89.7742 92.0824C74.9705 106.857 55.3053 115.766 34.4261 117.158V117.26Z" fill="black"/>
<path d="M4910.86 27.8013H4818.86C4817.34 27.8013 4815.88 28.4038 4814.81 29.4762C4813.74 30.5487 4813.13 32.0033 4813.13 33.52C4813.16 59.4335 4823.47 84.2782 4841.81 102.604C4860.15 120.93 4885.02 131.241 4910.96 131.275C4912.49 131.275 4913.95 130.67 4915.03 129.592C4916.11 128.515 4916.71 127.054 4916.71 125.531V33.6221C4916.73 32.8517 4916.58 32.0864 4916.29 31.3722C4916 30.658 4915.57 30.0096 4915.03 29.4659C4914.48 28.9223 4913.83 28.4946 4913.11 28.2085C4912.4 27.9225 4911.63 27.7839 4910.86 27.8013ZM4905.11 119.71C4884.25 118.295 4864.6 109.376 4849.81 94.6039C4835.03 79.8323 4826.1 60.2086 4824.68 39.3664H4905.11V119.71Z" fill="black"/>
<path d="M4910.86 1177.22C4884.92 1177.24 4860.05 1187.55 4841.71 1205.87C4823.37 1224.19 4813.06 1249.04 4813.03 1274.95C4813.03 1275.7 4813.17 1276.45 4813.46 1277.14C4813.74 1277.84 4814.17 1278.47 4814.7 1279.01C4815.23 1279.54 4815.86 1279.96 4816.56 1280.25C4817.25 1280.54 4818 1280.69 4818.75 1280.69H4910.76C4912.28 1280.69 4913.74 1280.09 4914.82 1279.01C4915.9 1277.93 4916.51 1276.47 4916.51 1274.95V1183.04C4916.52 1182.29 4916.39 1181.54 4916.11 1180.84C4915.83 1180.14 4915.42 1179.5 4914.89 1178.96C4914.37 1178.41 4913.74 1177.98 4913.05 1177.68C4912.36 1177.39 4911.61 1177.23 4910.86 1177.22ZM4905.11 1269.13H4824.68C4826.1 1248.28 4835.03 1228.66 4849.82 1213.88C4864.6 1199.11 4884.24 1190.18 4905.11 1188.76V1269.13Z" fill="black"/>
<path d="M28.676 1174.77C27.922 1174.76 27.1749 1174.91 26.4774 1175.19C25.7799 1175.48 25.1458 1175.9 24.6115 1176.43C24.0772 1176.96 23.6533 1177.6 23.364 1178.29C23.0747 1178.99 22.9258 1179.73 22.9258 1180.49V1272.39C22.9258 1273.92 23.5316 1275.38 24.61 1276.46C25.6883 1277.53 27.1509 1278.14 28.676 1278.14H120.679C122.204 1278.14 123.666 1277.53 124.745 1276.46C125.823 1275.38 126.429 1273.92 126.429 1272.39C126.368 1246.52 116.049 1221.72 97.7291 1203.42C79.4093 1185.12 54.5807 1174.82 28.676 1174.77ZM34.4261 1266.68V1186.41C55.3057 1187.81 74.9682 1196.73 89.7704 1211.51C104.572 1226.28 113.511 1245.92 114.929 1266.78L34.4261 1266.68Z" fill="black"/>
<path d="M36.0095 451.015H21.2891V590.715H36.0095V451.015Z" fill="black"/>
<path d="M36.0095 712.647H21.2891V852.348H36.0095V712.647Z" fill="black"/>
<path d="M4923.2 453.465H4908.48V593.166H4923.2V453.465Z" fill="black"/>
<path d="M4923.2 715.098H4908.48V854.798H4923.2V715.098Z" fill="black"/>
</svg>
