<svg width="2972" height="2143" viewBox="0 0 2972 2143" fill="none" xmlns="http://www.w3.org/2000/svg">
<g clip-path="url(#clip0_265_8)">
<path opacity="0.989" fill-rule="evenodd" clip-rule="evenodd" d="M1486.5 -0.5C1492.17 -0.5 1497.83 -0.5 1503.5 -0.5C1515.12 1.90011 1524.96 7.56677 1533 16.5C1545.15 29.9518 1549.82 45.6185 1547 63.5C1546.06 66.9927 1544.72 70.326 1543 73.5C1526.71 93.7338 1513.71 116.067 1504 140.5C1500.75 145.223 1496.25 146.723 1490.5 145C1489.07 144.535 1487.9 143.701 1487 142.5C1480.94 129.377 1474.61 116.377 1468 103.5C1462.11 93.6098 1455.44 84.2765 1448 75.5C1437.93 54.4985 1440.6 35.1651 1456 17.5C1464.21 7.98709 1474.37 1.98709 1486.5 -0.5ZM1486.5 19.5C1510.52 18.0181 1524.52 29.1847 1528.5 53C1528.2 57.8894 1526.7 62.3894 1524 66.5C1512.06 80.6925 1502.4 96.3592 1495 113.5C1486.67 95.4915 1476.34 78.8249 1464 63.5C1459.88 53.1236 1461.22 43.4569 1468 34.5C1472.82 27.6943 1478.99 22.6943 1486.5 19.5Z" fill="black"/>
<path opacity="0.993" fill-rule="evenodd" clip-rule="evenodd" d="M316.5 41.5C628.5 41.3333 940.5 41.5 1252.5 42C1260.74 44.9684 1263.9 50.8017 1262 59.5C1260.5 63 1258 65.5 1254.5 67C946.834 67.5 639.167 67.6667 331.5 67.5C323.809 170.109 276.475 248.276 189.5 302C149.313 325.339 105.979 337.839 59.5 339.5C59.6667 532.167 59.5 724.834 59 917.5C54.8943 927.093 48.061 929.593 38.5 925C36.3834 923.269 34.8834 921.102 34 918.5C33.3333 719.833 33.3333 521.167 34 322.5C35.9158 318.915 38.7491 316.415 42.5 315C141.547 312.414 217.38 269.581 270 186.5C294.275 143.343 306.941 97.0092 308 47.5C310.322 44.6047 313.155 42.6047 316.5 41.5Z" fill="black"/>
<path opacity="0.99" fill-rule="evenodd" clip-rule="evenodd" d="M1739.5 41.5C2042.17 41.3333 2344.83 41.5 2647.5 42C2653.18 42.7571 2656.68 45.9238 2658 51.5C2660.11 141.56 2696.94 213.394 2768.5 267C2814.81 298.658 2866.15 314.658 2922.5 315C2926.33 316.167 2928.83 318.667 2930 322.5C2931.66 520.125 2932 717.791 2931 915.5C2927.71 926.395 2920.88 929.561 2910.5 925C2908.62 923.457 2907.12 921.624 2906 919.5C2905.67 726.5 2905.33 533.5 2905 340.5C2797.77 331.586 2717.77 280.586 2665 187.5C2645.51 149.86 2634.68 109.86 2632.5 67.5C2334.17 67.6667 2035.83 67.5 1737.5 67C1728.95 62.6747 1726.78 56.1747 1731 47.5C1733.32 44.6047 1736.16 42.6047 1739.5 41.5Z" fill="black"/>
<path opacity="0.995" fill-rule="evenodd" clip-rule="evenodd" d="M44.5 44.5C95.5011 44.3333 146.501 44.5 197.5 45C201.888 45.7203 204.721 48.2203 206 52.5C204.897 113.557 178.73 160.39 127.5 193C101.195 208.326 72.8617 215.326 42.5 214C40 212.833 38.1667 211 37 208.5C36.3333 156.167 36.3333 103.833 37 51.5C38.7668 48.228 41.2668 45.8947 44.5 44.5ZM56.5 64.5C99.8333 64.5 143.167 64.5 186.5 64.5C179.109 126.485 146.109 167.985 87.5 189C78.3194 191.669 68.9861 193.503 59.5 194.5C58.5 194.5 57.5 194.5 56.5 194.5C56.5 151.167 56.5 107.833 56.5 64.5Z" fill="black"/>
<path opacity="0.995" fill-rule="evenodd" clip-rule="evenodd" d="M2758.5 44.5C2809.5 44.3333 2860.5 44.5 2911.5 45C2916.79 45.9575 2919.62 49.1242 2920 54.5C2920.67 104.833 2920.67 155.167 2920 205.5C2917.92 213.859 2912.59 216.859 2904 214.5C2844.99 210.339 2800.32 183.006 2770 132.5C2755.79 106.978 2749.45 79.6444 2751 50.5C2752.71 47.4096 2755.21 45.4096 2758.5 44.5ZM2900.5 64.5C2900.5 107.833 2900.5 151.167 2900.5 194.5C2899.5 194.5 2898.5 194.5 2897.5 194.5C2835.56 185.789 2794.73 151.789 2775 92.5C2772.79 84.6228 2771.29 76.6228 2770.5 68.5C2770.5 67.1667 2770.5 65.8333 2770.5 64.5C2813.83 64.5 2857.17 64.5 2900.5 64.5Z" fill="black"/>
<path opacity="0.584" fill-rule="evenodd" clip-rule="evenodd" d="M2900.5 64.5002C2857.17 64.5002 2813.83 64.5002 2770.5 64.5002C2770.5 65.8335 2770.5 67.1669 2770.5 68.5002C2769.55 67.0815 2769.22 65.4149 2769.5 63.5002C2813.34 63.1682 2857 63.5015 2900.5 64.5002Z" fill="black"/>
<path opacity="0.184" fill-rule="evenodd" clip-rule="evenodd" d="M56.5002 64.5C56.5002 107.833 56.5002 151.167 56.5002 194.5C57.5002 194.5 58.5002 194.5 59.5002 194.5C58.4326 195.434 57.0992 195.768 55.5002 195.5C55.1682 151.663 55.5015 107.997 56.5002 64.5Z" fill="black"/>
<path opacity="0.584" fill-rule="evenodd" clip-rule="evenodd" d="M2900.5 64.5C2901.5 107.997 2901.83 151.663 2901.5 195.5C2899.9 195.768 2898.57 195.434 2897.5 194.5C2898.5 194.5 2899.5 194.5 2900.5 194.5C2900.5 151.167 2900.5 107.833 2900.5 64.5Z" fill="black"/>
<path opacity="0.989" fill-rule="evenodd" clip-rule="evenodd" d="M1375.5 92.5C1408.13 90.9059 1435.63 101.906 1458 125.5C1495.54 169.362 1501.21 217.028 1475 268.5C1454.55 298.484 1426.05 314.651 1389.5 317C1357.89 319.43 1328.55 312.43 1301.5 296C1275.46 278.291 1252.96 256.791 1234 231.5C1223.2 218.352 1210.37 207.852 1195.5 200C1173.6 191.749 1152.27 193.083 1131.5 204C1109.64 223.045 1108.97 242.711 1129.5 263C1141.01 269.227 1152.34 268.893 1163.5 262C1168.91 257.259 1173.58 251.926 1177.5 246C1183.95 243.486 1188.79 245.319 1192 251.5C1192.65 254.594 1192.32 257.594 1191 260.5C1174.66 285.252 1152.5 292.752 1124.5 283C1099.41 267.321 1090.58 245.154 1098 216.5C1108.43 192.69 1126.6 179.19 1152.5 176C1179.36 171.715 1203.36 178.049 1224.5 195C1240.11 208.275 1253.95 223.109 1266 239.5C1283.01 259.529 1303.18 275.362 1326.5 287C1355.23 298.99 1384.56 300.657 1414.5 292C1451.34 276.972 1470.34 249.472 1471.5 209.5C1469.83 167.687 1450.49 137.187 1413.5 118C1383.28 107.511 1356.11 112.678 1332 133.5C1316.42 154.035 1315.42 175.368 1329 197.5C1342.47 213.599 1359.63 220.599 1380.5 218.5C1389.87 221.117 1392.37 226.783 1388 235.5C1358.51 242.227 1333.85 233.893 1314 210.5C1295.16 182.269 1294.83 153.936 1313 125.5C1329.7 106.734 1350.53 95.7338 1375.5 92.5Z" fill="black"/>
<path opacity="0.988" fill-rule="evenodd" clip-rule="evenodd" d="M1593.5 92.5002C1620.3 90.6958 1644.3 97.8625 1665.5 114C1692.82 140.963 1697.32 171.463 1679 205.5C1660.85 230.316 1636.35 241.149 1605.5 238C1598.8 233.385 1597.8 227.719 1602.5 221C1604.59 219.97 1606.75 219.137 1609 218.5C1637.99 220.813 1657.66 208.48 1668 181.5C1674.25 156.896 1666.75 137.729 1645.5 124C1603.69 103.16 1568.19 110.993 1539 147.5C1519.12 174.766 1513.45 204.766 1522 237.5C1532.68 268.764 1554.18 287.93 1586.5 295C1619.79 301.676 1650.79 296.009 1679.5 278C1694.18 268 1707.68 256.5 1720 243.5C1734.11 225.053 1749.95 208.219 1767.5 193C1799.01 171.008 1832.01 168.674 1866.5 186C1894.95 206.333 1901.45 232.166 1886 263.5C1867.95 288.388 1845.11 293.888 1817.5 280C1809.29 274.786 1802.79 267.952 1798 259.5C1796.46 246.863 1801.63 242.696 1813.5 247C1823.62 265.705 1838.62 271.372 1858.5 264C1875.46 250.781 1878.96 234.614 1869 215.5C1862.16 205.342 1852.66 199.175 1840.5 197C1816.76 190.946 1795.43 195.613 1776.5 211C1761.25 224.917 1747.41 240.084 1735 256.5C1712.25 282.121 1684.75 300.621 1652.5 312C1616 322.092 1581 318.425 1547.5 301C1519.58 282.703 1503.41 256.869 1499 223.5C1495.47 173.39 1514.31 134.223 1555.5 106C1567.48 99.1757 1580.15 94.6757 1593.5 92.5002Z" fill="black"/>
<path opacity="0.988" fill-rule="evenodd" clip-rule="evenodd" d="M231.5 667.5C264.013 669.188 282.68 686.021 287.5 718C286.058 739.235 276.058 754.902 257.5 765C248 766.167 243.833 762 245 752.5C245.707 750.919 246.54 749.419 247.5 748C262.939 739.622 269.106 726.789 266 709.5C259.573 695.856 248.74 688.522 233.5 687.5C212.311 690.855 199.811 703.188 196 724.5C190.564 750.191 196.898 772.524 215 791.5C233.633 807.797 251.966 824.464 270 841.5C287.007 859.193 300.007 879.527 309 902.5C317.796 930.878 318.796 959.544 312 988.5C296.985 1033.5 265.818 1058.67 218.5 1064C168.837 1065.92 130.67 1046.09 104 1004.5C85.7078 967.05 88.7078 931.383 113 897.5C138.088 871.177 167.255 865.677 200.5 881C229.215 898.935 241.382 924.768 237 958.5C230.042 965.638 224.042 964.971 219 956.5C220.84 933.702 213.006 915.202 195.5 901C157.473 883.675 130.973 894.508 116 933.5C107.265 961.827 112.598 987.16 132 1009.5C162.408 1041.56 198.908 1051.4 241.5 1039C270.997 1026.82 288.83 1004.99 295 973.5C301.448 936.628 293.448 903.295 271 873.5C262.203 863.035 253.037 852.868 243.5 843C226.416 829.918 210.582 815.418 196 799.5C173.819 772.249 168.486 741.916 180 708.5C189.38 684.944 206.547 671.277 231.5 667.5Z" fill="black"/>
<path opacity="0.988" fill-rule="evenodd" clip-rule="evenodd" d="M2828.5 1019.5C2832.83 1017.17 2836.17 1013.83 2838.5 1009.5C2862.36 979.999 2864.86 948.666 2846 915.5C2828.96 892.446 2807.13 886.613 2780.5 898C2759.59 910.372 2750.26 928.706 2752.5 953C2750.18 962.773 2744.52 965.439 2735.5 961C2728.8 932.087 2736.8 907.754 2759.5 888C2785.79 869.414 2813.12 867.748 2841.5 883C2865.81 902.283 2878.14 927.616 2878.5 959C2877.51 987.644 2866.51 1011.64 2845.5 1031C2806.21 1065.32 2762.21 1072.99 2713.5 1054C2672.88 1031.79 2652.88 997.29 2653.5 950.5C2653.51 923.112 2660.68 897.778 2675 874.5C2692.71 848.456 2714.21 825.956 2739.5 807C2752.65 796.2 2763.15 783.366 2771 768.5C2779.25 746.603 2777.92 725.269 2767 704.5C2747.96 682.639 2728.29 681.973 2708 702.5C2701.77 714.005 2702.11 725.338 2709 736.5C2713.74 741.912 2719.07 746.579 2725 750.5C2727.86 758.979 2724.86 763.979 2716 765.5C2698 758.155 2687.33 744.822 2684 725.5C2682.81 695.333 2696.97 676.5 2726.5 669C2753.12 666.226 2773.29 676.393 2787 699.5C2803.44 737.095 2798.44 771.428 2772 802.5C2759.69 816.147 2746.19 828.314 2731.5 839C2711.69 856.173 2695.85 876.34 2684 899.5C2671.25 930.12 2670.25 961.12 2681 992.5C2697.04 1026.28 2723.87 1043.62 2761.5 1044.5C2786.97 1044.24 2809.3 1035.9 2828.5 1019.5Z" fill="black"/>
<path opacity="0.694" fill-rule="evenodd" clip-rule="evenodd" d="M2838.5 1009.5C2836.17 1013.83 2832.83 1017.17 2828.5 1019.5C2831.5 1015.83 2834.83 1012.5 2838.5 1009.5Z" fill="black"/>
<path opacity="0.987" fill-rule="evenodd" clip-rule="evenodd" d="M-0.5 1079.5C-0.5 1071.5 -0.5 1063.5 -0.5 1055.5C6.36067 1035.48 20.0273 1022.31 40.5 1016C52.8824 1012.82 64.5491 1014.49 75.5 1021C95.0638 1036.96 116.73 1049.63 140.5 1059C147.331 1065.36 146.998 1071.36 139.5 1077C115.067 1086.71 92.7338 1099.71 72.5 1116C43.1577 1125.33 20.3243 1116.83 4 1090.5C2.44094 1086.73 0.940937 1083.07 -0.5 1079.5ZM46.5 1034.5C52.4018 1033.96 58.0685 1034.8 63.5 1037C78.3157 1048.91 94.3157 1059.08 111.5 1067.5C103.833 1071.67 96.1667 1075.83 88.5 1080C79.1085 1087.06 69.4418 1093.72 59.5 1100C41.1836 1101.75 28.017 1094.25 20 1077.5C16.0367 1060.59 21.5367 1047.76 36.5 1039C39.8153 1037.17 43.1486 1035.67 46.5 1034.5Z" fill="black"/>
<path opacity="0.989" fill-rule="evenodd" clip-rule="evenodd" d="M2971.5 1058.5C2971.5 1064.83 2971.5 1071.17 2971.5 1077.5C2966.38 1095.84 2955.05 1109.01 2937.5 1117C2923.99 1123.31 2910.65 1122.98 2897.5 1116C2877.27 1099.71 2854.93 1086.71 2830.5 1077C2825.78 1073.75 2824.28 1069.25 2826 1063.5C2826.47 1062.07 2827.3 1060.9 2828.5 1060C2853.6 1049.96 2876.6 1036.63 2897.5 1020C2910.65 1013.02 2923.99 1012.69 2937.5 1019C2955.05 1026.99 2966.38 1040.16 2971.5 1058.5ZM2912.5 1034.5C2930.85 1034.42 2943.69 1042.76 2951 1059.5C2954.29 1074.74 2949.46 1086.57 2936.5 1095C2926.21 1102.59 2915.55 1103.26 2904.5 1097C2890.48 1085.32 2875.15 1075.65 2858.5 1068C2867.15 1063.37 2875.81 1058.7 2884.5 1054C2893.76 1047.22 2903.09 1040.72 2912.5 1034.5Z" fill="black"/>
<path opacity="0.988" fill-rule="evenodd" clip-rule="evenodd" d="M194.5 1071.5C240.079 1067.38 275.579 1084.05 301 1121.5C316.466 1151.22 320.799 1182.55 314 1215.5C307.097 1242.64 294.43 1266.64 276 1287.5C262.031 1302.81 246.864 1316.64 230.5 1329C220.556 1337.94 211.722 1347.77 204 1358.5C191.233 1380.62 190.233 1403.28 201 1426.5C213.094 1446.64 229.927 1452.14 251.5 1443C268.517 1431.1 271.684 1416.27 261 1398.5C256.591 1393.42 251.591 1389.09 246 1385.5C242.998 1374.5 247.164 1369.67 258.5 1371C281.69 1384.88 290.523 1405.05 285 1431.5C273.695 1457.45 253.861 1469.28 225.5 1467C205.418 1462.59 190.918 1451.09 182 1432.5C168.491 1398.79 172.491 1367.46 194 1338.5C207.275 1322.89 222.109 1309.05 238.5 1297C259.482 1278.83 275.982 1257.33 288 1232.5C301.424 1199.03 300.424 1166.03 285 1133.5C267.598 1105.46 242.265 1091.12 209 1090.5C172.248 1092.21 143.581 1108.21 123 1138.5C105.414 1171.73 108.914 1202.56 133.5 1231C154.214 1247 175.547 1247.66 197.5 1233C206.265 1225.97 212.431 1217.13 216 1206.5C217.751 1196.52 219.084 1186.52 220 1176.5C223.396 1172.8 227.563 1171.63 232.5 1173C237.511 1176.85 239.511 1182.01 238.5 1188.5C237.109 1224.04 219.776 1247.87 186.5 1260C150.116 1268.55 122.616 1256.72 104 1224.5C81.8183 1175.73 90.985 1133.9 131.5 1099C150.122 1084.3 171.122 1075.13 194.5 1071.5Z" fill="black"/>
<path opacity="0.988" fill-rule="evenodd" clip-rule="evenodd" d="M2748.5 1071.5C2795.21 1068.61 2832.71 1085.61 2861 1122.5C2885.11 1161.47 2884.11 1199.8 2858 1237.5C2830.98 1265.72 2800.15 1270.56 2765.5 1252C2740.67 1233.83 2729.84 1209.33 2733 1178.5C2735.92 1172.98 2740.42 1171.14 2746.5 1173C2749.69 1175.19 2751.69 1178.19 2752.5 1182C2750.19 1210.99 2762.52 1230.66 2789.5 1241C2814.09 1247.25 2833.26 1239.75 2847 1218.5C2867.84 1176.69 2860.01 1141.19 2823.5 1112C2797.56 1092.95 2768.89 1086.95 2737.5 1094C2702.25 1104.63 2681.42 1128.13 2675 1164.5C2669.99 1196.12 2675.99 1225.45 2693 1252.5C2703 1267.18 2714.5 1280.68 2727.5 1293C2745.95 1307.11 2762.78 1322.95 2778 1340.5C2799.99 1372.01 2802.33 1405.01 2785 1439.5C2761.99 1470.54 2734.15 1475.71 2701.5 1455C2684.24 1439.4 2679.41 1420.56 2687 1398.5C2692 1386.5 2700.17 1377.33 2711.5 1371C2724.14 1369.46 2728.3 1374.63 2724 1386.5C2703.87 1397.88 2698.87 1413.88 2709 1434.5C2724.61 1450.03 2741.44 1451.53 2759.5 1439C2769.14 1429.21 2774.64 1417.38 2776 1403.5C2778.16 1387.77 2775.16 1373.1 2767 1359.5C2763 1354.17 2759 1348.83 2755 1343.5C2741.97 1331.08 2728.47 1319.24 2714.5 1308C2688.88 1285.25 2670.38 1257.75 2659 1225.5C2648.91 1189 2652.57 1154 2670 1120.5C2688.56 1092.13 2714.73 1075.8 2748.5 1071.5Z" fill="black"/>
<path opacity="0.998" fill-rule="evenodd" clip-rule="evenodd" d="M42.5 1212.5C50.7153 1211.58 56.2153 1214.91 59 1222.5C59.5 1416.5 59.6667 1610.5 59.5 1804.5C161.585 1812.09 239.419 1859.09 293 1945.5C316.246 1986.07 329.079 2029.74 331.5 2076.5C638.834 2076.33 946.167 2076.5 1253.5 2077C1261.54 2080.24 1264.37 2086.08 1262 2094.5C1260.08 2098.08 1257.25 2100.58 1253.5 2102C940.5 2102.67 627.5 2102.67 314.5 2102C309.649 2100.13 306.816 2096.63 306 2091.5C303.232 1992.42 260.066 1916.92 176.5 1865C135.618 1841.78 91.6177 1830.11 44.5 1830C39.3186 1829.17 35.8186 1826.34 34 1821.5C33.3333 1621.5 33.3333 1421.5 34 1221.5C35.6878 1217.31 38.5212 1214.31 42.5 1212.5Z" fill="black"/>
<path opacity="0.995" fill-rule="evenodd" clip-rule="evenodd" d="M1738.5 2077.5C2036.83 2077.5 2335.17 2077.5 2633.5 2077.5C2633.5 2075.83 2633.5 2074.17 2633.5 2072.5C2641.45 1976.14 2685.45 1901.3 2765.5 1848C2808.25 1821.14 2854.92 1806.64 2905.5 1804.5C2905.33 1609.83 2905.5 1415.17 2906 1220.5C2912.91 1210.7 2920.57 1210.04 2929 1218.5C2929.97 1220.39 2930.64 1222.39 2931 1224.5C2932 1423.88 2931.66 1623.21 2930 1822.5C2928.5 1825.33 2926.33 1827.5 2923.5 1829C2825.91 1831.36 2750.41 1872.86 2697 1953.5C2671.21 1996.53 2658.21 2043.2 2658 2093.5C2656.5 2097.67 2653.67 2100.5 2649.5 2102C2345.5 2102.67 2041.5 2102.67 1737.5 2102C1728.1 2096.8 1726.27 2089.64 1732 2080.5C1733.87 2078.78 1736.04 2077.78 1738.5 2077.5Z" fill="black"/>
<path opacity="0.988" fill-rule="evenodd" clip-rule="evenodd" d="M1370.5 1824.5C1408.17 1822.27 1440 1834.6 1466 1861.5C1495.26 1901.31 1499.26 1943.65 1478 1988.5C1465 2013.17 1445.83 2031.33 1420.5 2043C1384.85 2055.39 1352.18 2050.06 1322.5 2027C1299.02 2003.62 1293.52 1976.46 1306 1945.5C1322.46 1914.52 1348.29 1900.68 1383.5 1904C1391.99 1909.14 1392.66 1915.14 1385.5 1922C1363.49 1920.33 1344.99 1927.5 1330 1943.5C1317.27 1962.57 1316.27 1982.24 1327 2002.5C1342.43 2020.38 1362.1 2029.71 1386 2030.5C1417.76 2026.62 1441.76 2010.96 1458 1983.5C1475.57 1950.97 1475.9 1918.31 1459 1885.5C1439.34 1857.42 1412.18 1843.75 1377.5 1844.5C1354.54 1844.41 1333.21 1850.24 1313.5 1862C1288.46 1878.71 1266.96 1899.21 1249 1923.5C1235.62 1939.25 1219.79 1951.75 1201.5 1961C1173.07 1971.47 1145.74 1969.13 1119.5 1954C1091.95 1930.79 1087.78 1903.95 1107 1873.5C1128.35 1851.21 1151.85 1848.71 1177.5 1866C1183.86 1871.02 1188.69 1877.19 1192 1884.5C1192.58 1895.13 1187.75 1898.96 1177.5 1896C1172.45 1887.95 1165.78 1881.62 1157.5 1877C1134.57 1871.4 1120.4 1880.23 1115 1903.5C1114.55 1918.43 1120.38 1930.26 1132.5 1939C1161.24 1952.65 1188.24 1949.99 1213.5 1931C1228.09 1917.75 1241.25 1903.25 1253 1887.5C1270.91 1867.9 1291.41 1851.74 1314.5 1839C1332.33 1830.41 1350.99 1825.58 1370.5 1824.5Z" fill="black"/>
<path opacity="0.988" fill-rule="evenodd" clip-rule="evenodd" d="M1604.5 1824.5C1640.97 1823.49 1673.63 1833.99 1702.5 1856C1709.79 1861.63 1716.79 1867.63 1723.5 1874C1739.46 1892.3 1755.8 1910.3 1772.5 1928C1799.37 1950.64 1828.37 1953.64 1859.5 1937C1876.96 1921.36 1879.13 1903.86 1866 1884.5C1851.98 1871.74 1837.48 1871.24 1822.5 1883C1819.61 1886.22 1817.11 1889.72 1815 1893.5C1808.56 1899.21 1802.89 1898.54 1798 1891.5C1796.69 1885.8 1798.02 1880.8 1802 1876.5C1816.97 1857.84 1836.14 1851.34 1859.5 1857C1881.55 1866.72 1893.21 1883.72 1894.5 1908C1891.49 1937.68 1875.49 1956.35 1846.5 1964C1815.64 1972.36 1787.97 1966.36 1763.5 1946C1746.92 1930.75 1731.75 1914.25 1718 1896.5C1701.76 1879.59 1683.26 1865.75 1662.5 1855C1632.2 1842.3 1601.54 1841.3 1570.5 1852C1536.49 1867.8 1518.83 1894.63 1517.5 1932.5C1519.57 1971.15 1536.9 2000.65 1569.5 2021C1598.15 2034.6 1625.48 2032.26 1651.5 2014C1671.31 1996.01 1675.47 1974.84 1664 1950.5C1650.64 1929.74 1631.47 1920.57 1606.5 1923C1600.2 1920.57 1598.04 1916.07 1600 1909.5C1601.26 1906.57 1603.43 1904.74 1606.5 1904C1641.91 1901.12 1667.75 1915.28 1684 1946.5C1698.61 1993.78 1682.78 2026.28 1636.5 2044C1592.91 2057.03 1556.41 2046.19 1527 2011.5C1494.27 1969.51 1489.6 1924.51 1513 1876.5C1534.47 1843.51 1564.97 1826.18 1604.5 1824.5Z" fill="black"/>
<path opacity="0.997" fill-rule="evenodd" clip-rule="evenodd" d="M43.4995 1920.5C112.716 1922.67 162.549 1954.67 193 2016.5C202.212 2037.9 206.546 2060.23 206 2083.5C205.208 2085.59 204.041 2087.42 202.5 2089C149.249 2090.66 95.9157 2090.99 42.4995 2090C40.7135 2089.22 39.2135 2088.05 37.9995 2086.5C36.3419 2033.58 36.0085 1980.58 36.9995 1927.5C38.0178 1923.99 40.1844 1921.65 43.4995 1920.5ZM56.4995 1940.5C106.017 1945.99 143.517 1969.99 169 2012.5C178.771 2030.65 184.604 2049.98 186.5 2070.5C143.167 2070.5 99.8328 2070.5 56.4995 2070.5C56.4995 2027.17 56.4995 1983.83 56.4995 1940.5Z" fill="black"/>
<path opacity="0.995" fill-rule="evenodd" clip-rule="evenodd" d="M2901.5 1920.5C2906.27 1920.19 2910.93 1920.69 2915.5 1922C2918.18 1924.19 2919.68 1927.03 2920 1930.5C2920.98 1982.21 2920.65 2033.88 2919 2085.5C2917.46 2087.38 2915.62 2088.88 2913.5 2090C2860.42 2090.99 2807.42 2090.66 2754.5 2089C2753.33 2087.83 2752.17 2086.67 2751 2085.5C2751.17 2017.3 2781.34 1967.47 2841.5 1936C2860.74 1927.36 2880.74 1922.19 2901.5 1920.5ZM2900.5 2070.5C2857.17 2070.5 2813.83 2070.5 2770.5 2070.5C2770.5 2069.5 2770.5 2068.5 2770.5 2067.5C2779.26 2006.24 2812.93 1965.74 2871.5 1946C2880.7 1943.41 2890.04 1941.58 2899.5 1940.5C2900.5 1983.83 2900.83 2027.16 2900.5 2070.5Z" fill="black"/>
<path opacity="0.989" fill-rule="evenodd" clip-rule="evenodd" d="M1504.5 2142.5C1497.83 2142.5 1491.17 2142.5 1484.5 2142.5C1463.99 2135.83 1450.16 2122.16 1443 2101.5C1440.33 2090.47 1441.33 2079.8 1446 2069.5C1462.31 2049.23 1475.31 2026.9 1485 2002.5C1487.92 1996.98 1492.42 1995.14 1498.5 1997C1500.29 1997.78 1501.79 1998.95 1503 2000.5C1512.71 2024.93 1525.71 2047.27 1542 2067.5C1550.03 2084.64 1549.03 2101.31 1539 2117.5C1530.51 2130.15 1519.01 2138.48 1504.5 2142.5ZM1494.5 2029.5C1503.13 2047.31 1513.63 2063.97 1526 2079.5C1529.33 2086.17 1529.33 2092.83 1526 2099.5C1518.36 2117.57 1504.86 2125.07 1485.5 2122C1468.43 2114.28 1460.6 2101.11 1462 2082.5C1468.28 2072.56 1474.94 2062.89 1482 2053.5C1486.43 2045.63 1490.6 2037.63 1494.5 2029.5Z" fill="black"/>
<path opacity="0.235" fill-rule="evenodd" clip-rule="evenodd" d="M56.5002 1940.5C56.5002 1983.83 56.5002 2027.17 56.5002 2070.5C99.8335 2070.5 143.167 2070.5 186.5 2070.5C143.003 2071.5 99.3367 2071.83 55.5002 2071.5C55.1682 2027.66 55.5015 1984 56.5002 1940.5Z" fill="black"/>
<path opacity="0.184" fill-rule="evenodd" clip-rule="evenodd" d="M2770.5 2067.5C2770.5 2068.5 2770.5 2069.5 2770.5 2070.5C2813.83 2070.5 2857.17 2070.5 2900.5 2070.5C2857 2071.5 2813.34 2071.83 2769.5 2071.5C2769.23 2069.9 2769.57 2068.57 2770.5 2067.5Z" fill="black"/>
<path opacity="0.4" fill-rule="evenodd" clip-rule="evenodd" d="M2633.5 2072.5C2633.5 2074.17 2633.5 2075.83 2633.5 2077.5C2335.17 2077.5 2036.83 2077.5 1738.5 2077.5C2036.33 2076.5 2334.33 2076.17 2632.5 2076.5C2632.23 2074.9 2632.57 2073.57 2633.5 2072.5Z" fill="black"/>
</g>
<defs>
<clipPath id="clip0_265_8">
<rect width="2972" height="2143" fill="white"/>
</clipPath>
</defs>
</svg>
