<svg xmlns="http://www.w3.org/2000/svg" width="366" height="366" fill="#000" xmlns:v="https://vecta.io/nano"><path d="M302.53 150c-30.839-8.651-60.22-6.279-87.393 10.421-27.355 16.813-42.843 42.143-49.147 73.335a130.92 130.92 0 0 0-1.719 10.839c-.33 2.845-.603 6.342 3.317 6.586 3.572.222 3.704-3.104 3.959-5.8 2.354-24.908 11.944-46.546 29.349-64.6 16.049-16.647 35.781-25.525 58.678-27.975 21.783-2.331 42.308 1.149 60.435 13.786 23.708 16.529 36.096 39.482 38.286 68.5 2.711 35.924-23.18 67.726-48.867 77.884-37.275 14.741-83.614-2.097-97.406-40.643-5.985-16.727-7.402-33.678 1.751-49.739 7.059-12.388 17.905-20.642 32.084-23.472 14-2.794 29.408 8.981 33.024 24.407 2.429 10.359.565 19.789-5.343 28.524-.56.828-1.154 1.638-1.656 2.5-1.1 1.891-1.516 3.877.524 5.331 2.047 1.458 3.916.472 5.218-1.254 4.154-5.509 7.127-11.555 8.576-18.388 4.821-22.727-10.322-45.089-33.271-48.328-9.103-1.284-17.473 2.055-25.065 6.802-20.105 12.569-29.014 30.763-27.096 54.464 1.867 23.059 11.619 41.716 30.009 55.813.775.593 1.707 1.1 1.677 2.651-2.094 1.49-4.488 2.962-6.618 4.749-7.059 5.925-11.283 13.581-12.584 22.635-1.316 9.165 4.695 13.832 13.114 10.071 10.243-4.575 17.324-12.218 20.219-23.312.538-2.063.915-4.167 1.361-6.225 2.575.387 2.575.387 4.93 1.891-3.768 6.237-7.212 12.677-7.355 20.281-.121 6.411.452 12.623 3.832 18.303 4.033 6.777 10.651 7.199 15.138.513 6.739-10.041 9.435-20.873 4.849-32.689-.293-.756-.541-1.53-.819-2.321 6.118-1.33 6.442-.813 6.109 4.806-.749 12.642 3.611 23.304 13.915 30.895 7.602 5.601 14.183 2.456 15.001-6.912.823-9.438-1.222-18.193-7.135-25.841-.775-1.003-2.008-1.795-1.961-3.573 3.194-1.618 3.808.853 4.73 2.962 4.869 11.126 13.283 18.073 24.992 21.127 2.126.554 4.27.752 6.441.49 6.193-.747 9.079-5.046 7.158-11.001-2.492-7.724-7.355-13.722-14.005-18.31l-4.415-3.035c.574-1.766 2.074-1.93 3.139-2.637 29.532-19.604 45.997-46.762 42.663-82.528-3.677-39.449-24.533-67.464-62.623-81.983zm-17.178 178.297c9.589 6.393 14.465 20.617 9.49 27.683-8.341-2.953-15.771-18.172-12.973-26.503.513-1.527 1.269-2.3 3.483-1.18zm-54.595-6.809c2.701-1.644 4.949-4.408 8.632-3.759 1.983 10.844-7.968 24.283-18.637 24.894-.892-8.807 3.615-15.045 10.005-21.135zm87.372 3.548c5.978 4.055 11.04 8.799 12.921 16.206-8.965 2.669-24.293-7.631-25.233-16.361-.262-2.431 1.332-2.964 3.101-2.74 2.961.376 5.916.977 9.211 2.895zm-63.629 8.335c1.319-2.57 2.199-5.47 4.929-7.057 7.499 8.596 5.651 26.434-3.317 31.147-4.389-7.527-4.763-15.295-1.612-24.09zM213.053 94.514c.272 52.543-35.22 85.396-75.018 96.329-6.096 1.675-12.38 2.534-18.683 3.152-2.561.251-5.443.682-5.099 4.103.327 3.261 3.265 2.852 5.53 2.702 23.875-1.59 45.139-10.125 63.308-25.493 31.984-27.051 41.969-61.994 34.768-102.408-7.584-42.563-48.83-71.715-87.154-72.849C95.569-.99 69.724 14.452 50.856 43.184c-.695 1.058-.964 2.517-2.706 3.085-3.858-6.867-8.842-12.781-16.043-16.444-1.77-.9-3.614-1.771-5.525-2.259-6.411-1.639-10.352 1.435-10.622 8.104-.471 11.659 8.831 25.292 20.533 30.049 2.475 1.006 5.209 1.75 3.991 6.394-6.593-6.519-14.332-9.49-22.912-10.418-.33-.036-.652-.142-.982-.184-6.45-.817-12.941 1.385-14.561 5.412-2.37 5.892 1.491 9.946 5.121 13.53 7.601 7.506 16.878 11.193 27.659 10.27 4.362-.374 6.212 1.216 5.627 6.213-5.303-1.763-10.495-3.22-16.018-2.826-6.973.497-13.446 2.342-19.162 6.387-7.448 5.27-6.952 12.408 1.302 16.206 11.419 5.255 22.652 4.29 33.487-1.94 1.285-.739 2.512-1.576 3.839-2.414 1.617 1.323 1.896 3.123 2.441 4.848-1.46 1.73-3.469.829-5.166 1.168-12.364 2.472-20.37 10.268-25.274 21.337-3.232 7.296.319 12.167 8.321 12.118 11.202-.067 19.622-5.486 26.206-14.165 1.276-1.683 2.363-3.509 3.49-5.198 1.99.613 2.479 2.163 3.366 3.308 19.21 24.799 54.099 35.656 81.88 25.462 18.602-6.826 34.415-27.85 34.444-45.793.027-17.124-14.225-33.153-31.66-36.212-12.147-2.132-23.118.196-33.193 7.113-2.336 1.604-5.317 3.54-3.01 6.752 2.234 3.11 4.736.584 6.877-.883 16.812-11.513 38.246-7.935 49.379 8.498 6.325 9.336 5.619 19.263.962 28.985-10.505 21.932-32.441 32.186-57.592 27.174-33.646-6.705-57.073-34.511-57.948-68.779-1.026-40.188 25.964-73.26 65.636-80.216 42.006-7.365 91.317 21.581 98.973 70.748.801 5.144.901 10.258 1.036 15.9zM44.804 133.498c-5.629 7.294-12.753 11.527-22.322 11.603.957-11.898 16.742-22.773 25.315-17.999-.256 2.18-1.476 3.96-2.993 6.396zm-7.487-50.851c-9.942 3.892-26.105-3.504-27.989-12.807 10.407-3.824 24.364 2.202 27.989 12.807zm.47-24.195C27.98 52.731 21.479 41.756 23.646 34.58c11.554 1.788 21.452 15.195 18.48 25.082-1.444.647-2.499-.427-4.339-1.21zm-7.822 42.668c3.417 1.069 6.994 1.865 9.3 5.056-9.544 8.379-25.943 9.192-31.39 1.414 6.301-4.858 13.293-7.238 22.09-6.47zm105.14 108.146l-33.744 5.987c-27.959 5.762-47.243 21.888-55.269 49.502-6.774 23.305 2.836 50.633 32.267 55.757 17.398 3.029 32.457-2.773 46.017-13.213 16.547-12.74 24.29-30.299 27.209-50.459 1.141-7.876 2.379-15.747 3.905-23.555 2.538-12.986 8.264-24.507 16.651-34.733 1.547-1.886 3.851-4.052 1.313-6.452-2.293-2.17-4.637-.506-6.629 1.16-9.219 7.709-19.701 12.931-31.72 16.006zm-76.942 91.828c-6.686-9.601-8.386-20.354-6.001-31.484 5.309-24.775 26.468-43.85 51.815-47.847 12.633-1.992 25.429-3.268 37.726-7.036 4.636-1.421 9.124-3.324 14.229-5.21l-4.054 10.455c-5.155 14.199-5.641 29.348-8.89 43.933-5.542 24.882-20.216 41.828-44.863 48.734-14.85 4.161-28.78 1.406-39.962-11.545zm106.008 7.274c3.307 8.14 7.398 15.349 13.47 21.251 11.545 11.222 21.553 8.806 25.097-6.852 4.176-18.45 1.562-36.053-10.411-51.455-4.809-6.187-11.2-10.365-18.335-13.408-5.514-2.352-6.69-1.852-8.949 3.882-6.016 15.267-6.893 30.672-.872 46.582zm31.052 15.465c-2.877 6.355-4.46 6.823-9.96 2.881-1.077-.772-2.195-1.553-3.072-2.529-12.07-13.423-16.96-29.061-14.11-46.939.664-4.159 1-8.541 3.752-12.054 6.866 2.235 13.84 7.788 17.924 14.61 8.128 13.574 8.955 28.179 5.466 44.031zM108.54 194.682c-7.314-21.613-24.536-31.338-44.541-33.295-7.88-.771-15.881-.776-23.715 1.707-11.854 3.757-14.821 11.672-7.136 21.494 9.296 11.882 22.402 17.35 36.789 20.105 12.198 2.336 23.758-.511 35.065-4.865 2.139-.824 3.845-2.058 3.538-5.146zm-48.883-.014c-7.872-3.032-14.956-7.258-20.444-13.794-4.998-5.952-4.343-8.781 3.145-10.938 14.976-4.315 29.358-2.058 42.777 5.517 7.201 4.065 12.41 10.203 15.451 18.371-13.555 5.505-26.798 5.956-40.929.844z"/></svg>