<svg xmlns="http://www.w3.org/2000/svg" width="366" height="366" fill="#000" xmlns:v="https://vecta.io/nano"><path d="M63.048 215.348c30.839 8.652 60.22 6.28 87.393-10.421 27.355-16.812 42.843-42.142 49.147-73.334.724-3.584 1.298-7.208 1.719-10.84.33-2.845.603-6.342-3.317-6.585-3.572-.223-3.704 3.103-3.959 5.799-2.354 24.909-11.944 46.546-29.349 64.6-16.049 16.648-35.781 25.525-58.678 27.975-21.783 2.331-42.308-1.149-60.435-13.786-23.708-16.528-36.096-39.482-38.286-68.499-2.711-35.924 23.18-67.726 48.867-77.884 37.275-14.741 83.614 2.097 97.406 40.643 5.985 16.728 7.402 33.679-1.751 49.74-7.059 12.387-17.904 20.641-32.084 23.471-14 2.794-29.408-8.981-33.024-24.406-2.428-10.36-.564-19.789 5.343-28.525.56-.828 1.154-1.637 1.656-2.5 1.1-1.891 1.517-3.877-.524-5.331-2.047-1.457-3.915-.471-5.217 1.255-4.155 5.508-7.127 11.555-8.577 18.387-4.821 22.727 10.323 45.09 33.272 48.328 9.102 1.284 17.472-2.055 25.064-6.801 20.105-12.57 29.014-30.763 27.096-54.464-1.866-23.059-11.619-41.716-30.009-55.813-.774-.594-1.707-1.1-1.677-2.651 2.095-1.49 4.488-2.962 6.618-4.749 7.059-5.924 11.283-13.581 12.584-22.635 1.316-9.164-4.695-13.832-13.114-10.071-10.243 4.576-17.324 12.218-20.218 23.312-.539 2.063-.916 4.167-1.362 6.225-2.575-.387-2.575-.387-4.93-1.892 3.769-6.237 7.212-12.677 7.355-20.281.121-6.411-.451-12.623-3.832-18.303-4.033-6.777-10.651-7.199-15.138-.514-6.739 10.041-9.435 20.874-4.849 32.69.293.756.541 1.53.819 2.321-6.118 1.33-6.442.813-6.109-4.806.749-12.643-3.611-23.304-13.915-30.896-7.602-5.601-14.182-2.455-15 6.912-.824 9.438 1.222 18.193 7.134 25.841.775 1.003 2.008 1.795 1.961 3.573-3.194 1.618-3.807-.853-4.73-2.962-4.869-11.126-13.283-18.074-24.992-21.127-2.126-.554-4.269-.752-6.441-.49-6.193.747-9.078 5.047-7.158 11.001 2.491 7.724 7.355 13.722 14.005 18.31l4.415 3.035c-.574 1.767-2.074 1.93-3.139 2.637C13.556 70.442-2.908 97.6.425 133.365c3.677 39.449 24.534 67.465 62.623 81.983zM80.227 37.052c-9.589-6.393-14.466-20.617-9.491-27.683 8.341 2.953 15.771 18.172 12.973 26.502-.513 1.527-1.269 2.3-3.483 1.18zm54.595 6.809c-2.701 1.644-4.948 4.409-8.632 3.76-1.983-10.844 7.969-24.284 18.637-24.894.892 8.806-3.615 15.045-10.005 21.134zM47.45 40.313c-5.977-4.055-11.039-8.799-12.921-16.205 8.965-2.669 24.294 7.63 25.234 16.36.262 2.431-1.332 2.965-3.101 2.74-2.962-.376-5.916-.977-9.212-2.895zm63.629-8.335c-1.318 2.57-2.199 5.47-4.929 7.058-7.499-8.596-5.651-26.435 3.317-31.147 4.389 7.527 4.763 15.295 1.612 24.089zm41.446 238.857c-.272-52.542 35.221-85.395 75.018-96.328 6.096-1.675 12.38-2.534 18.683-3.153 2.561-.251 5.443-.682 5.099-4.103-.327-3.261-3.265-2.852-5.53-2.701-23.875 1.589-45.138 10.125-63.308 25.492-31.983 27.051-41.969 61.994-34.768 102.408 7.584 42.563 48.83 71.715 87.154 72.849 35.136 1.04 60.981-14.402 79.85-43.135.694-1.058.964-2.517 2.706-3.085 3.858 6.868 8.842 12.782 16.042 16.444 1.77.901 3.614 1.771 5.525 2.26 6.412 1.639 10.352-1.435 10.622-8.104.471-11.659-8.831-25.292-20.534-30.049-2.475-1.006-5.208-1.75-3.991-6.394 6.593 6.518 14.332 9.49 22.913 10.418.33.035.652.142.982.183 6.45.817 12.94-1.384 14.56-5.411 2.37-5.892-1.491-9.946-5.12-13.53-7.601-7.506-16.879-11.193-27.66-10.27-4.361.374-6.212-1.216-5.627-6.212 5.302 1.763 10.495 3.22 16.018 2.826 6.973-.497 13.446-2.342 19.162-6.387 7.448-5.271 6.953-12.409-1.301-16.207-11.419-5.254-22.652-4.29-33.487 1.941-1.285.738-2.513 1.576-3.84 2.413-1.617-1.323-1.895-3.122-2.441-4.847 1.46-1.731 3.47-.83 5.166-1.169 12.364-2.471 20.37-10.268 25.274-21.337 3.231-7.295-.32-12.166-8.321-12.118-11.202.068-19.622 5.487-26.206 14.166-1.277 1.682-2.363 3.508-3.49 5.197-1.99-.613-2.479-2.162-3.366-3.307-19.21-24.8-54.099-35.657-81.88-25.462-18.602 6.826-34.415 27.85-34.444 45.792-.027 17.124 14.225 33.153 31.66 36.212 12.147 2.132 23.118-.195 33.193-7.112 2.336-1.604 5.317-3.54 3.01-6.752-2.234-3.111-4.735-.584-6.877.883-16.811 11.513-38.246 7.934-49.379-8.498-6.325-9.337-5.619-19.263-.962-28.985 10.505-21.932 32.442-32.187 57.592-27.175 33.646 6.705 57.073 34.511 57.948 68.78 1.026 40.188-25.964 73.259-65.636 80.216-42.006 7.365-91.317-21.581-98.973-70.749-.801-5.144-.901-10.258-1.036-15.9zm168.249-38.985c5.629-7.293 12.753-11.526 22.322-11.603-.957 11.898-16.742 22.774-25.315 18 .256-2.181 1.475-3.96 2.993-6.397zm7.486 50.852c9.943-3.892 26.106 3.503 27.989 12.807-10.407 3.824-24.364-2.202-27.989-12.807zm-.469 24.195c9.807 5.721 16.308 16.696 14.141 23.872-11.554-1.788-21.452-15.195-18.481-25.082 1.444-.646 2.499.428 4.34 1.21zm7.822-42.668c-3.418-1.068-6.995-1.865-9.3-5.056 9.545-8.379 25.944-9.191 31.39-1.413-6.301 4.858-13.293 7.238-22.09 6.469zm-105.14-108.147l33.744-5.987c27.959-5.762 47.243-21.887 55.27-49.502 6.773-23.304-2.836-50.632-32.267-55.756-17.398-3.029-32.458 2.773-46.018 13.213-16.547 12.74-24.29 30.299-27.209 50.46-1.14 7.875-2.378 15.746-3.905 23.555-2.538 12.985-8.264 24.507-16.651 34.733-1.546 1.886-3.851 4.052-1.313 6.452 2.294 2.17 4.637.506 6.629-1.16 9.219-7.71 19.701-12.932 31.72-16.007zm76.942-91.828c6.686 9.601 8.386 20.354 6.001 31.484-5.309 24.776-26.468 43.851-51.814 47.847-12.634 1.992-25.43 3.268-37.727 7.036-4.635 1.421-9.123 3.324-14.229 5.21l4.054-10.455c5.155-14.199 5.641-29.347 8.89-43.933 5.542-24.881 20.216-41.827 44.863-48.734 14.85-4.161 28.78-1.406 39.962 11.545zM201.407 56.98c-3.306-8.14-7.398-15.348-13.47-21.251-11.545-11.222-21.553-8.806-25.097 6.853-4.176 18.45-1.561 36.052 10.411 51.455 4.809 6.188 11.2 10.364 18.336 13.408 5.513 2.351 6.689 1.851 8.948-3.882 6.016-15.267 6.894-30.672.872-46.583zm-31.051-15.465c2.876-6.355 4.459-6.823 9.959-2.881 1.077.772 2.195 1.553 3.073 2.529 12.069 13.422 16.96 29.061 14.109 46.939-.663 4.159-1 8.541-3.752 12.054-6.866-2.235-13.84-7.787-17.924-14.61-8.127-13.574-8.955-28.179-5.465-44.031zm86.682 129.152c7.314 21.612 24.536 31.338 44.541 33.295 7.881.771 15.882.775 23.715-1.708 11.854-3.756 14.82-11.671 7.136-21.493-9.296-11.882-22.402-17.35-36.789-20.105-12.198-2.336-23.758.511-35.065 4.865-2.139.823-3.845 2.058-3.538 5.146zm48.883.013c7.871 3.032 14.956 7.258 20.444 13.794 4.998 5.953 4.343 8.781-3.145 10.939-14.976 4.315-29.357 2.057-42.777-5.517-7.201-4.065-12.41-10.204-15.451-18.371 13.555-5.505 26.798-5.957 40.929-.845z"/></svg>