<svg xmlns="http://www.w3.org/2000/svg" width="366" height="366" fill="#000" xmlns:v="https://vecta.io/nano"><path d="M63.048 150c30.839-8.651 60.22-6.279 87.393 10.421 27.355 16.813 42.843 42.143 49.147 73.335a130.92 130.92 0 0 1 1.719 10.839c.33 2.845.603 6.342-3.317 6.586-3.572.222-3.704-3.104-3.959-5.8-2.354-24.908-11.944-46.546-29.349-64.6-16.049-16.647-35.781-25.525-58.678-27.975-21.783-2.331-42.308 1.149-60.435 13.786-23.708 16.529-36.096 39.482-38.286 68.5-2.711 35.924 23.18 67.726 48.867 77.884 37.275 14.741 83.614-2.097 97.406-40.643 5.985-16.727 7.402-33.678-1.751-49.739-7.059-12.388-17.904-20.642-32.084-23.472-14-2.794-29.408 8.981-33.024 24.407-2.428 10.359-.564 19.789 5.343 28.524.56.828 1.154 1.638 1.656 2.5 1.1 1.891 1.517 3.877-.524 5.331-2.047 1.458-3.915.472-5.217-1.254-4.155-5.509-7.127-11.555-8.577-18.388-4.821-22.727 10.323-45.089 33.272-48.328 9.102-1.284 17.472 2.055 25.064 6.802 20.105 12.569 29.014 30.763 27.096 54.464-1.866 23.059-11.619 41.716-30.009 55.813-.774.593-1.707 1.1-1.677 2.651 2.095 1.49 4.488 2.962 6.618 4.749 7.059 5.925 11.283 13.581 12.584 22.635 1.316 9.165-4.695 13.832-13.114 10.071-10.243-4.575-17.324-12.218-20.218-23.312-.539-2.063-.916-4.167-1.362-6.225-2.575.387-2.575.387-4.93 1.891 3.769 6.237 7.212 12.677 7.355 20.281.121 6.411-.451 12.623-3.832 18.303-4.033 6.777-10.651 7.199-15.138.513-6.739-10.041-9.435-20.873-4.849-32.689.293-.756.541-1.53.819-2.321-6.118-1.33-6.442-.813-6.109 4.806.749 12.642-3.611 23.304-13.915 30.895-7.602 5.601-14.182 2.456-15-6.912-.824-9.438 1.222-18.193 7.134-25.841.775-1.003 2.008-1.795 1.961-3.573-3.194-1.618-3.807.853-4.73 2.962-4.869 11.126-13.283 18.073-24.992 21.127-2.126.554-4.269.752-6.441.49-6.193-.747-9.078-5.046-7.158-11.001 2.491-7.724 7.355-13.722 14.005-18.31l4.415-3.035c-.574-1.766-2.074-1.93-3.139-2.637C13.556 294.907-2.908 267.749.425 231.983 4.102 192.534 24.959 164.519 63.048 150zm17.179 178.297c-9.589 6.393-14.466 20.617-9.491 27.683 8.341-2.953 15.771-18.172 12.973-26.503-.513-1.527-1.269-2.3-3.483-1.18zm54.595-6.809c-2.701-1.644-4.948-4.408-8.632-3.759-1.983 10.844 7.969 24.283 18.637 24.894.892-8.807-3.615-15.045-10.005-21.135zm-87.372 3.548c-5.977 4.055-11.039 8.799-12.921 16.206 8.965 2.669 24.294-7.631 25.234-16.361.262-2.431-1.332-2.964-3.101-2.74-2.962.376-5.916.977-9.212 2.895zm63.629 8.335c-1.318-2.57-2.199-5.47-4.929-7.057-7.499 8.596-5.651 26.434 3.317 31.147 4.389-7.527 4.763-15.295 1.612-24.09zm41.446-238.857c-.272 52.543 35.221 85.396 75.018 96.329 6.096 1.675 12.38 2.534 18.683 3.152 2.561.251 5.443.682 5.099 4.103-.327 3.261-3.265 2.852-5.53 2.702-23.875-1.59-45.138-10.125-63.308-25.493-31.983-27.051-41.969-61.994-34.768-102.408 7.584-42.563 48.83-71.715 87.154-72.849 35.136-1.039 60.981 14.402 79.85 43.135.694 1.058.964 2.517 2.706 3.085 3.858-6.867 8.842-12.781 16.042-16.444 1.77-.9 3.614-1.771 5.525-2.259 6.412-1.639 10.352 1.435 10.622 8.104.471 11.659-8.831 25.292-20.534 30.049-2.475 1.006-5.208 1.75-3.991 6.394 6.593-6.519 14.332-9.49 22.913-10.418.33-.036.652-.142.982-.184 6.45-.817 12.94 1.385 14.56 5.412 2.37 5.892-1.491 9.946-5.12 13.53-7.601 7.506-16.879 11.193-27.66 10.27-4.361-.374-6.212 1.216-5.627 6.213 5.302-1.763 10.495-3.22 16.018-2.826 6.973.497 13.446 2.342 19.162 6.387 7.448 5.27 6.953 12.408-1.301 16.206-11.419 5.255-22.652 4.29-33.487-1.94-1.285-.739-2.513-1.576-3.84-2.414-1.617 1.323-1.895 3.123-2.441 4.848 1.46 1.73 3.47.829 5.166 1.168 12.364 2.472 20.37 10.268 25.274 21.337 3.231 7.296-.32 12.167-8.321 12.118-11.202-.067-19.622-5.486-26.206-14.165-1.277-1.683-2.363-3.509-3.49-5.198-1.99.613-2.479 2.163-3.366 3.308-19.21 24.799-54.099 35.656-81.88 25.462-18.602-6.826-34.415-27.85-34.444-45.793-.027-17.124 14.225-33.153 31.66-36.212 12.147-2.132 23.118.196 33.193 7.113 2.336 1.604 5.317 3.54 3.01 6.752-2.234 3.11-4.735.584-6.877-.883-16.811-11.513-38.246-7.935-49.379 8.498-6.325 9.336-5.619 19.263-.962 28.985 10.505 21.932 32.442 32.186 57.592 27.174 33.646-6.705 57.073-34.511 57.948-68.779 1.026-40.188-25.964-73.26-65.636-80.216-42.006-7.365-91.317 21.581-98.973 70.748-.801 5.144-.901 10.258-1.036 15.9zm168.249 38.985c5.629 7.294 12.753 11.527 22.322 11.603-.957-11.898-16.742-22.773-25.315-17.999.256 2.18 1.475 3.96 2.993 6.396zm7.486-50.851c9.943 3.892 26.106-3.504 27.989-12.807-10.407-3.824-24.364 2.202-27.989 12.807zm-.469-24.195c9.807-5.721 16.308-16.696 14.141-23.872-11.554 1.788-21.452 15.195-18.481 25.082 1.444.647 2.499-.427 4.34-1.21zm7.822 42.668c-3.418 1.069-6.995 1.865-9.3 5.056 9.545 8.379 25.944 9.192 31.39 1.414-6.301-4.858-13.293-7.238-22.09-6.47zm-105.14 108.145l33.744 5.987c27.959 5.762 47.243 21.888 55.27 49.502 6.773 23.305-2.836 50.633-32.267 55.757-17.398 3.029-32.458-2.773-46.018-13.213-16.547-12.74-24.29-30.299-27.209-50.459-1.14-7.876-2.378-15.747-3.905-23.555-2.538-12.986-8.264-24.507-16.651-34.733-1.546-1.886-3.851-4.052-1.313-6.452 2.294-2.17 4.637-.506 6.629 1.16 9.219 7.709 19.701 12.931 31.72 16.006zm76.942 91.828c6.686-9.601 8.386-20.354 6.001-31.484-5.309-24.775-26.468-43.85-51.814-47.847-12.634-1.992-25.43-3.268-37.727-7.036-4.635-1.421-9.123-3.324-14.229-5.21l4.054 10.455c5.155 14.199 5.641 29.348 8.89 43.933 5.542 24.882 20.216 41.828 44.863 48.734 14.85 4.161 28.78 1.406 39.962-11.545zm-106.008 7.274c-3.306 8.14-7.398 15.349-13.47 21.251-11.545 11.222-21.553 8.806-25.097-6.852-4.176-18.45-1.561-36.053 10.411-51.455 4.809-6.187 11.2-10.365 18.336-13.408 5.513-2.352 6.689-1.852 8.948 3.882 6.016 15.267 6.894 30.672.872 46.582zm-31.051 15.465c2.876 6.355 4.459 6.823 9.959 2.881 1.077-.772 2.195-1.553 3.073-2.529 12.069-13.423 16.96-29.061 14.109-46.939-.663-4.159-1-8.541-3.752-12.054-6.866 2.235-13.84 7.788-17.924 14.61-8.127 13.574-8.955 28.179-5.465 44.031zm86.682-129.151c7.314-21.613 24.536-31.338 44.541-33.295 7.881-.771 15.882-.776 23.715 1.707 11.854 3.757 14.82 11.672 7.136 21.494-9.296 11.882-22.402 17.35-36.789 20.105-12.198 2.336-23.758-.511-35.065-4.865-2.139-.824-3.845-2.058-3.538-5.146zm48.883-.014c7.871-3.032 14.956-7.258 20.444-13.794 4.998-5.952 4.343-8.781-3.145-10.938-14.976-4.315-29.357-2.058-42.777 5.517-7.201 4.065-12.41 10.203-15.451 18.371 13.555 5.505 26.798 5.956 40.929.844z"/></svg>